<svg preserveAspectRatio="none" width="100%" height="100%" overflow="visible" style="display: block;" viewBox="0 0 18 18" fill="none" xmlns="http://www.w3.org/2000/svg">
<g id="Icon" clip-path="url(#clip0_0_15)">
<path id="Vector" d="M2.244 12.2565C2.35428 12.5347 2.37883 12.8395 2.3145 13.1318L1.51575 15.5992C1.49001 15.7244 1.49667 15.854 1.53508 15.9759C1.5735 16.0977 1.6424 16.2077 1.73525 16.2955C1.8281 16.3832 1.94183 16.4458 2.06565 16.4772C2.18947 16.5087 2.31927 16.508 2.44275 16.4752L5.0025 15.7267C5.27829 15.672 5.5639 15.696 5.82675 15.7958C7.42829 16.5437 9.24252 16.7019 10.9494 16.2425C12.6562 15.7832 14.146 14.7357 15.1558 13.285C16.1656 11.8343 16.6306 10.0736 16.4687 8.31341C16.3069 6.55327 15.5285 4.90685 14.271 3.66465C13.0136 2.42244 11.3578 1.66428 9.59579 1.52392C7.8338 1.38357 6.07885 1.87004 4.64058 2.8975C3.20231 3.92497 2.17315 5.42741 1.73467 7.13973C1.29619 8.85205 1.47658 10.6642 2.244 12.2565Z" stroke="var(--stroke-0, #086FED)" stroke-width="1.5" stroke-linecap="round" stroke-linejoin="round"/>
</g>
<defs>
<clipPath id="clip0_0_15">
<rect width="18" height="18" fill="white"/>
</clipPath>
</defs>
</svg>
