<svg preserveAspectRatio="none" width="100%" height="100%" overflow="visible" style="display: block;" viewBox="0 0 18.3732 13.4441" fill="none" xmlns="http://www.w3.org/2000/svg">
<path id="Vector" d="M1.26994 10.8887C0.687796 8.14139 0.687796 5.30262 1.26994 2.55534C1.34643 2.27635 1.49423 2.02207 1.69878 1.81751C1.90334 1.61295 2.15762 1.46516 2.43661 1.38867C6.90615 0.648221 11.4671 0.648221 15.9366 1.38867C16.2156 1.46516 16.4699 1.61295 16.6744 1.81751C16.879 2.02207 17.0268 2.27635 17.1033 2.55534C17.6854 5.30262 17.6854 8.14139 17.1033 10.8887C17.0268 11.1677 16.879 11.4219 16.6744 11.6265C16.4699 11.8311 16.2156 11.9788 15.9366 12.0553C11.4671 12.7959 6.90614 12.7959 2.43661 12.0553C2.15762 11.9788 1.90334 11.8311 1.69878 11.6265C1.49423 11.4219 1.34643 11.1677 1.26994 10.8887Z" stroke="var(--stroke-0, #086FED)" stroke-width="1.66667" stroke-linecap="round" stroke-linejoin="round"/>
</svg>
