<svg preserveAspectRatio="none" width="100%" height="100%" overflow="visible" style="display: block;" viewBox="0 0 8.33334 8.33334" fill="none" xmlns="http://www.w3.org/2000/svg">
<path id="Vector" d="M7.46395 3.67773C7.56679 4.37126 7.44833 5.07957 7.12541 5.70191C6.8025 6.32424 6.29157 6.8289 5.6653 7.14412C5.03904 7.45934 4.32932 7.56906 3.6371 7.45767C2.94489 7.34628 2.30542 7.01946 1.80965 6.52369C1.31388 6.02793 0.98706 5.38845 0.875672 4.69624C0.764285 4.00402 0.874004 3.2943 1.18922 2.66804C1.50444 2.04177 2.0091 1.53084 2.63144 1.20793C3.25377 0.885011 3.96208 0.76655 4.65562 0.869393C5.36305 0.974297 6.01799 1.30395 6.52369 1.80965C7.0294 2.31535 7.35905 2.97029 7.46395 3.67773Z" stroke="var(--stroke-0, #086FED)" stroke-width="1.66667" stroke-linecap="round" stroke-linejoin="round"/>
</svg>
