<svg preserveAspectRatio="none" width="100%" height="100%" overflow="visible" style="display: block;" viewBox="0 0 32.5 32.5" fill="none" xmlns="http://www.w3.org/2000/svg">
<g id="Layer 2">
<path id="Vector" d="M29.5833 10H20.8333V2.91667C20.829 2.14447 20.5203 1.40514 19.9742 0.859106C19.4282 0.313071 18.6889 0.00437517 17.9167 0H2.91667C2.14447 0.00437517 1.40514 0.313071 0.859106 0.859106C0.313071 1.40514 0.00437517 2.14447 0 2.91667V31.25C0.00431661 31.5802 0.137399 31.8956 0.37089 32.1291C0.604381 32.3626 0.919822 32.4957 1.25 32.5H31.25C31.5802 32.4957 31.8956 32.3626 32.1291 32.1291C32.3626 31.8956 32.4957 31.5802 32.5 31.25V12.9167C32.4956 12.1445 32.1869 11.4051 31.6409 10.8591C31.0949 10.3131 30.3555 10.0044 29.5833 10ZM13.3333 30H7.5V22.9167C7.5 22.8062 7.5439 22.7002 7.62204 22.622C7.70018 22.5439 7.80616 22.5 7.91667 22.5H12.9167C13.0272 22.5 13.1332 22.5439 13.2113 22.622C13.2894 22.7002 13.3333 22.8062 13.3333 22.9167V30ZM18.3333 30H15.8333V22.9167C15.829 22.1445 15.5203 21.4051 14.9742 20.8591C14.4282 20.3131 13.6889 20.0044 12.9167 20H7.91667C7.14447 20.0044 6.40514 20.3131 5.85911 20.8591C5.31307 21.4051 5.00438 22.1445 5 22.9167V30H2.5V2.91667C2.5 2.80616 2.5439 2.70018 2.62204 2.62204C2.70018 2.5439 2.80616 2.5 2.91667 2.5H17.9167C18.0272 2.5 18.1332 2.5439 18.2113 2.62204C18.2894 2.70018 18.3333 2.80616 18.3333 2.91667V30ZM30 30H20.8333V12.5H29.5833C29.6938 12.5 29.7998 12.5439 29.878 12.622C29.9561 12.7002 30 12.8062 30 12.9167V30ZM15 11.25C14.9957 11.5802 14.8626 11.8956 14.6291 12.1291C14.3956 12.3626 14.0802 12.4957 13.75 12.5H11.6667V14.5833C11.6667 14.9149 11.535 15.2328 11.3005 15.4672C11.0661 15.7016 10.7482 15.8333 10.4167 15.8333C10.0851 15.8333 9.7672 15.7016 9.53278 15.4672C9.29836 15.2328 9.16667 14.9149 9.16667 14.5833V12.5H7.08333C6.75181 12.5 6.43387 12.3683 6.19945 12.1339C5.96503 11.8995 5.83333 11.5815 5.83333 11.25C5.83333 10.9185 5.96503 10.6005 6.19945 10.3661C6.43387 10.1317 6.75181 10 7.08333 10H9.16667V7.91667C9.16667 7.58515 9.29836 7.2672 9.53278 7.03278C9.7672 6.79836 10.0851 6.66667 10.4167 6.66667C10.7482 6.66667 11.0661 6.79836 11.3005 7.03278C11.535 7.2672 11.6667 7.58515 11.6667 7.91667V10H13.75C14.0802 10.0043 14.3956 10.1374 14.6291 10.3709C14.8626 10.6044 14.9957 10.9198 15 11.25ZM27.5 26.25C27.4957 26.5802 27.3626 26.8956 27.1291 27.1291C26.8956 27.3626 26.5802 27.4957 26.25 27.5H24.5833C24.2518 27.5 23.9339 27.3683 23.6994 27.1339C23.465 26.8995 23.3333 26.5815 23.3333 26.25C23.3333 25.9185 23.465 25.6005 23.6994 25.3661C23.9339 25.1317 24.2518 25 24.5833 25H26.25C26.5802 25.0043 26.8956 25.1374 27.1291 25.3709C27.3626 25.6044 27.4957 25.9198 27.5 26.25ZM27.5 21.25C27.4957 21.5802 27.3626 21.8956 27.1291 22.1291C26.8956 22.3626 26.5802 22.4957 26.25 22.5H24.5833C24.2518 22.5 23.9339 22.3683 23.6994 22.1339C23.465 21.8995 23.3333 21.5815 23.3333 21.25C23.3333 20.9185 23.465 20.6005 23.6994 20.3661C23.9339 20.1317 24.2518 20 24.5833 20H26.25C26.5802 20.0043 26.8956 20.1374 27.1291 20.3709C27.3626 20.6044 27.4957 20.9198 27.5 21.25ZM27.5 16.25C27.4957 16.5802 27.3626 16.8956 27.1291 17.1291C26.8956 17.3626 26.5802 17.4957 26.25 17.5H24.5833C24.2518 17.5 23.9339 17.3683 23.6994 17.1339C23.465 16.8995 23.3333 16.5815 23.3333 16.25C23.3333 15.9185 23.465 15.6005 23.6994 15.3661C23.9339 15.1317 24.2518 15 24.5833 15H26.25C26.5802 15.0043 26.8956 15.1374 27.1291 15.3709C27.3626 15.6044 27.4957 15.9198 27.5 16.25Z" fill="var(--fill-0, black)"/>
</g>
</svg>
