<svg preserveAspectRatio="none" width="100%" height="100%" overflow="visible" style="display: block;" viewBox="0 0 24 24" fill="none" xmlns="http://www.w3.org/2000/svg">
<g id="Frame 9">
<path id="Union" d="M9.46582 0.700684C9.89803 0.332096 10.599 0.331834 11.0312 0.700684L11.8623 1.40869C12.0697 1.58556 12.1863 1.82564 12.1865 2.07568V6.32959C12.1864 6.57976 12.0696 6.81965 11.8623 6.99658L10.1514 8.45557L11.8623 9.91455C12.0697 10.0914 12.1863 10.3315 12.1865 10.5815V17.6733C12.6134 17.5207 13.0813 17.4351 13.5723 17.4351C15.5574 17.4351 17.1726 18.8122 17.1729 20.5054C17.1729 22.1987 15.5576 23.5766 13.5723 23.5767C11.5872 23.5764 9.97266 22.1986 9.97266 20.5054V10.9731L8.58594 9.79053L7.2002 10.9731V20.5054C7.2002 22.1986 5.58581 23.5765 3.60059 23.5767C1.6152 23.5767 1.02689e-05 22.1987 0 20.5054C0.000158751 18.8121 1.61531 17.4351 3.60059 17.4351C4.09157 17.4351 4.55944 17.5207 4.98633 17.6733V10.5815C4.9865 10.3314 5.10318 10.0914 5.31055 9.91455L7.02051 8.45557L5.31055 6.99658C5.1031 6.81963 4.98644 6.57975 4.98633 6.32959V2.07568C4.98652 1.82558 5.10322 1.58555 5.31055 1.40869L6.1416 0.700684C6.57386 0.332053 7.27479 0.332011 7.70703 0.700684C8.13887 1.06934 8.139 1.66608 7.70703 2.03467L7.2002 2.46729V5.93799L8.58594 7.11963L9.97266 5.93799V2.46729L9.46582 2.03564C9.03407 1.66699 9.03405 1.06932 9.46582 0.700684ZM22.7129 0.42334C23.3238 0.42334 23.8212 0.845958 23.8213 1.36768V22.6323C23.8213 23.1537 23.3252 23.5767 22.7139 23.5767H19.3896C18.7785 23.5765 18.2832 23.1536 18.2832 22.6323V12.0005C18.2832 11.7502 18.4 11.5095 18.6074 11.3325L19.4863 10.5825L18.6074 9.83252C18.3997 9.65548 18.2832 9.41492 18.2832 9.16455V4.20264C18.2832 2.11259 20.2675 0.423511 22.7129 0.42334ZM3.60059 19.3237C2.83675 19.3237 2.21508 19.8539 2.21484 20.5054C2.21484 21.1571 2.83656 21.688 3.60059 21.688C4.36452 21.6878 4.98633 21.157 4.98633 20.5054C4.9861 19.8539 4.36438 19.3239 3.60059 19.3237ZM13.5723 19.3237C12.8086 19.3239 12.1868 19.854 12.1865 20.5054C12.1865 21.1569 12.8084 21.6878 13.5723 21.688C14.3362 21.688 14.959 21.1571 14.959 20.5054C14.9588 19.8538 14.3361 19.3237 13.5723 19.3237ZM20.4971 12.3911V21.688H21.6064V11.5269H21.5107L20.4971 12.3911ZM21.6064 2.56885C21.0944 2.82484 20.4971 3.33609 20.4971 4.20264V8.77393L21.5107 9.63818H21.6064V2.56885Z" fill="var(--fill-0, #0047AB)"/>
</g>
</svg>
