<svg preserveAspectRatio="none" width="100%" height="100%" overflow="visible" style="display: block;" viewBox="0 0 21.5386 24" fill="none" xmlns="http://www.w3.org/2000/svg">
<g id="Frame 427318252">
<path id="Vector" d="M21.1324 2.62154C21.0074 2.5368 20.8637 2.48359 20.7137 2.46644C20.5637 2.4493 20.4117 2.46873 20.2708 2.52308L19.8278 2.70769C18.3838 3.28531 16.7902 3.37297 15.2916 2.95718C13.793 2.5414 12.4723 1.64518 11.5324 0.406154C11.4504 0.284694 11.3406 0.184507 11.2122 0.11388C11.0838 0.0432532 10.9404 0.00421668 10.7939 0C10.6476 0.00252322 10.5035 0.0368544 10.3717 0.100612C10.24 0.16437 10.1236 0.256029 10.0308 0.369231C9.09443 1.61999 7.77168 2.52702 6.26751 2.94979C4.76334 3.37256 3.16174 3.28746 1.71083 2.70769L1.26776 2.52308C1.12687 2.46873 0.97492 2.4493 0.82489 2.46644C0.67486 2.48359 0.531211 2.5368 0.406219 2.62154C0.280609 2.70513 0.177736 2.81863 0.106843 2.95182C0.0359502 3.08501 -0.000741182 3.23373 6.56926e-05 3.38462V10.4615C-0.00949358 13.5728 1.02446 16.5974 2.93661 19.0517C4.84875 21.5061 7.52864 23.2484 10.5478 24H10.7693H10.9908C14.0099 23.2484 16.6898 21.5061 18.602 19.0517C20.5141 16.5974 21.5481 13.5728 21.5385 10.4615V3.38462C21.5393 3.23373 21.5026 3.08501 21.4317 2.95182C21.3609 2.81863 21.258 2.70513 21.1324 2.62154ZM19.6924 10.4615C19.6965 13.1159 18.8241 15.6973 17.2105 17.8048C15.597 19.9124 13.3327 21.4283 10.7693 22.1169C8.20587 21.4283 5.94157 19.9124 4.32805 17.8048C2.71453 15.6973 1.84209 13.1159 1.84622 10.4615V4.70154C3.4082 5.15171 5.06304 5.16968 6.63443 4.75353C8.20581 4.33738 9.63486 3.50271 10.7693 2.33846C11.9014 3.50611 13.3304 4.34311 14.9026 4.75947C16.4748 5.17583 18.1307 5.1558 19.6924 4.70154V10.4615ZM15.3847 12C15.3815 12.2438 15.2832 12.4768 15.1108 12.6492C14.9384 12.8216 14.7054 12.9199 14.4616 12.9231H11.6924V15.6923C11.6924 15.9371 11.5951 16.1719 11.422 16.345C11.2489 16.5181 11.0141 16.6154 10.7693 16.6154C10.5245 16.6154 10.2897 16.5181 10.1166 16.345C9.94347 16.1719 9.84622 15.9371 9.84622 15.6923V12.9231H7.07699C6.83217 12.9231 6.59739 12.8258 6.42427 12.6527C6.25116 12.4796 6.15391 12.2448 6.15391 12C6.15391 11.7552 6.25116 11.5204 6.42427 11.3473C6.59739 11.1742 6.83217 11.0769 7.07699 11.0769H9.84622V8.30769C9.84622 8.06288 9.94347 7.82809 10.1166 7.65498C10.2897 7.48187 10.5245 7.38462 10.7693 7.38462C11.0141 7.38462 11.2489 7.48187 11.422 7.65498C11.5951 7.82809 11.6924 8.06288 11.6924 8.30769V11.0769H14.4616C14.7054 11.0801 14.9384 11.1784 15.1108 11.3508C15.2832 11.5232 15.3815 11.7562 15.3847 12Z" fill="var(--fill-0, #0047AB)"/>
</g>
</svg>
