<svg preserveAspectRatio="none" width="100%" height="100%" overflow="visible" style="display: block;" viewBox="0 0 117.896 19.291" fill="none" xmlns="http://www.w3.org/2000/svg">
<g id="Group">
<path id="Vector" d="M10.1755 3.44531C12.0628 3.44531 13.5617 4.04064 14.8875 5.32418L15.3097 5.73374L17.6952 3.3482L17.3152 2.92598C15.5883 1.01333 13.0846 0 10.0742 0C4.23908 0 0 4.05753 0 9.64349C0 15.2294 4.21375 19.287 10.0235 19.287C12.7215 19.287 15.3055 18.4172 17.1041 16.8972L17.3152 16.7199V8.94683H13.6926V14.9677C12.6624 15.5546 11.5013 15.8417 10.1459 15.8417C6.42196 15.8417 3.71976 13.2366 3.71976 9.64349C3.71976 6.0504 6.43462 3.44531 10.1713 3.44531H10.1755Z" fill="var(--fill-0, white)"/>
<path id="Vector_2" d="M23.6573 0.202186H19.9331V19.0881H23.6573V0.202186Z" fill="var(--fill-0, white)"/>
<path id="Vector_3" d="M40.5501 9.17869C41.6268 8.2667 42.2263 6.92826 42.2263 5.37028C42.2263 2.13185 39.6339 0.198089 35.285 0.198089H26.752V19.084H35.7875C42.201 19.084 43.1594 15.7189 43.1594 13.7091C43.1594 11.6993 42.2221 10.0442 40.5459 9.17869H40.5501ZM35.0613 7.90781H30.4802V3.44496H35.0613C37.3455 3.44496 38.5066 4.19651 38.5066 5.6785C38.5066 7.16048 37.3497 7.91204 35.0613 7.91204V7.90781ZM30.4802 11.1505H35.6946C38.9921 11.1505 39.4186 12.4087 39.4186 13.5064C39.4186 14.6042 38.9964 15.8413 35.6946 15.8413H30.4802V11.1505Z" fill="var(--fill-0, white)"/>
<path id="Vector_4" d="M58.6676 9.17879C59.7443 8.2668 60.3438 6.92836 60.3438 5.37038C60.3438 2.13195 57.7514 0.198189 53.4025 0.198189H44.8695V19.0841H53.905C60.3185 19.0841 61.2769 15.719 61.2769 13.7092C61.2769 11.6994 60.3396 10.0443 58.6634 9.17879H58.6676ZM53.1745 7.90791H48.5934V3.44506H53.1745C55.4587 3.44506 56.6198 4.19661 56.6198 5.6786C56.6198 7.16059 55.4587 7.91214 53.1745 7.91214V7.90791ZM48.5934 11.1506H53.8079C57.1054 11.1506 57.5318 12.4088 57.5318 13.5065C57.5318 14.6043 57.1096 15.8414 53.8079 15.8414H48.5934V11.1506Z" fill="var(--fill-0, white)"/>
<path id="Vector_5" d="M66.7112 11.1757H75.5783V7.8317H66.7112V3.59684H76.6635V0.202196H62.987V19.0838H77.0182V15.6892H66.7112V11.1757Z" fill="var(--fill-0, white)"/>
<path id="Vector_6" d="M91.2591 10.7537C91.2591 14.1779 89.8192 15.8414 86.8551 15.8414C83.8909 15.8414 82.4764 14.2243 82.4764 10.7537V0.20242H78.7522V10.8592C78.7522 16.2172 81.6952 19.291 86.8298 19.291C91.9643 19.291 94.9073 16.2172 94.9073 10.8592V0.20242H91.2591V10.7579V10.7537Z" fill="var(--fill-0, white)"/>
<path id="Vector_7" d="M117.871 0.20231H114.861L107.919 12.054L100.885 0.20231H97.8747V19.084H101.497V7.84026L106.952 16.9391H108.797L114.253 7.76848L114.274 19.084H117.896L117.871 0.20231Z" fill="var(--fill-0, white)"/>
</g>
</svg>
