<svg preserveAspectRatio="none" width="100%" height="100%" overflow="visible" style="display: block;" viewBox="0 0 116.224 7.6298" fill="none" xmlns="http://www.w3.org/2000/svg">
<g id="Group">
<path id="Vector" d="M5.44696 3.69894H7.00505V6.68825C6.19434 7.30047 5.07539 7.62558 4.024 7.62558C1.70587 7.62558 0 6.03382 0 3.81294C0 1.59207 1.70587 0.000301149 4.05355 0.000301149C5.34985 0.000301149 6.42235 0.443632 7.14017 1.2754L6.04233 2.28451C5.50608 1.71451 4.88538 1.45273 4.138 1.45273C2.70659 1.45273 1.72698 2.41117 1.72698 3.81294C1.72698 5.21471 2.70659 6.17315 4.11689 6.17315C4.58136 6.17315 5.01205 6.0887 5.44274 5.85648V3.69894H5.44696Z" fill="var(--fill-0, white)"/>
<path id="Vector_2" d="M14.6303 6.13074V7.49873H8.92154V0.126782H14.4952V1.49477H10.619V3.09498H14.0434V4.42075H10.619V6.12652H14.6303V6.13074Z" fill="var(--fill-0, white)"/>
<path id="Vector_3" d="M23.0872 0.126704V7.49865H21.6853L18.0076 3.02313V7.49865H16.3228V0.126704H17.7331L21.3982 4.60223V0.126704H23.083H23.0872Z" fill="var(--fill-0, white)"/>
<path id="Vector_4" d="M30.8813 6.13059V7.49858H25.1725V0.126635H30.7461V1.49463H26.8699V3.09484H30.2943V4.4206H26.8699V6.12637H30.8813V6.13059Z" fill="var(--fill-0, white)"/>
<path id="Vector_5" d="M37.2734 7.50297L35.8504 5.45098H34.2797V7.50297H32.5738V0.131021H35.766C37.7379 0.131021 38.9666 1.15279 38.9666 2.80789C38.9666 3.9141 38.4092 4.72477 37.4507 5.13432L39.1059 7.50297H37.2734ZM35.6731 1.52012H34.2839V4.09144H35.6731C36.716 4.09144 37.2438 3.60588 37.2438 2.80789C37.2438 2.0099 36.716 1.52434 35.6731 1.52434V1.52012Z" fill="var(--fill-0, white)"/>
<path id="Vector_6" d="M45.5114 5.91955H42.087L41.4325 7.49865H39.6844L42.9695 0.126701H44.6542L47.952 7.49865H46.1616L45.5072 5.91955H45.5114ZM44.9751 4.62334L43.8055 1.79869L42.6359 4.62334H44.9751Z" fill="var(--fill-0, white)"/>
<path id="Vector_7" d="M49.0616 0.126787H50.7674V6.10963H54.4663V7.49873H49.0616V0.126787Z" fill="var(--fill-0, white)"/>
<path id="Vector_8" d="M65.8412 0.126939V7.49889H64.1353V4.4758H60.7869V7.49889H59.081V0.126939H60.7869V3.03603H64.1353V0.126939H65.8412Z" fill="var(--fill-0, white)"/>
<path id="Vector_9" d="M67.4575 3.81264C67.4575 1.62132 69.1634 0 71.4942 0C73.825 0 75.5266 1.61288 75.5266 3.81264C75.5266 6.0124 73.8081 7.62528 71.4942 7.62528C69.1803 7.62528 67.4575 6.00396 67.4575 3.81264ZM73.7997 3.81264C73.7997 2.41087 72.8116 1.45243 71.4942 1.45243C70.1768 1.45243 69.1888 2.41087 69.1888 3.81264C69.1888 5.21441 70.181 6.17285 71.4942 6.17285C72.8074 6.17285 73.7997 5.21441 73.7997 3.81264Z" fill="var(--fill-0, white)"/>
<path id="Vector_10" d="M76.5691 6.77269L77.1476 5.48914C77.7683 5.94092 78.6972 6.25758 79.5797 6.25758C80.5931 6.25758 81.0027 5.91981 81.0027 5.46803C81.0027 4.08738 76.7169 5.03737 76.7169 2.29716C76.7169 1.04317 77.7303 0.00029196 79.8246 0.00029196C80.7494 0.00029196 81.6994 0.219846 82.3835 0.654732L81.8556 1.95094C81.1716 1.5625 80.4665 1.3725 79.812 1.3725C78.8028 1.3725 78.4101 1.7525 78.4101 2.21694C78.4101 3.57649 82.6959 2.63916 82.6959 5.34559C82.6959 6.57847 81.6741 7.6298 79.5671 7.6298C78.3974 7.6298 77.2194 7.28357 76.5649 6.77691L76.5691 6.77269Z" fill="var(--fill-0, white)"/>
<path id="Vector_11" d="M90.6003 2.80358C90.6003 4.44601 89.3673 5.46778 87.3997 5.46778H85.9134V7.49865H84.2075V0.126704H87.3997C89.3716 0.126704 90.6003 1.14848 90.6003 2.80358ZM88.8733 2.80358C88.8733 1.99291 88.3455 1.52003 87.3026 1.52003H85.9134V4.07868H87.3026C88.3455 4.07868 88.8733 3.60579 88.8733 2.80358Z" fill="var(--fill-0, white)"/>
<path id="Vector_12" d="M92.1489 0.126771H93.8548V7.49872H92.1489V0.126771Z" fill="var(--fill-0, white)"/>
<path id="Vector_13" d="M97.4649 1.52031H95.1045V0.131208H101.531V1.52031H99.1707V7.50316H97.4649V1.52031Z" fill="var(--fill-0, white)"/>
<path id="Vector_14" d="M107.273 5.91977H103.849L103.194 7.49887H101.446L104.731 0.126918H106.416L109.714 7.49887H107.924L107.269 5.91977H107.273ZM106.733 4.62355L105.563 1.79891L104.394 4.62355H106.733Z" fill="var(--fill-0, white)"/>
<path id="Vector_15" d="M110.82 0.127006H112.526V6.10985H116.224V7.49895H110.82V0.127006Z" fill="var(--fill-0, white)"/>
</g>
</svg>
