<svg preserveAspectRatio="none" width="100%" height="100%" overflow="visible" style="display: block;" viewBox="0 0 36.1088 28.113" fill="none" xmlns="http://www.w3.org/2000/svg">
<g id="Group">
<path id="Vector" d="M15.0725 13.9587C9.59633 13.0889 7.48101 8.87519 3.14904 11.4718C-1.18293 14.0685 -0.617154 20.0471 2.26238 23.4797C6.9068 29.015 12.9656 29.0995 21.79 26.3044C30.6144 23.5093 33.7093 19.722 34.7986 18.3245C36.3397 16.3485 36.8633 12.8229 34.4566 11.5436C30.5637 9.47474 28.7651 16.1289 15.0725 13.9545V13.9587Z" fill="var(--fill-0, #66C2EA)"/>
<path id="Vector_2" d="M12.4804 3.60153C12.4804 5.59018 10.8674 7.20306 8.87866 7.20306C6.88989 7.20306 5.27691 5.59018 5.27691 3.60153C5.27691 1.61288 6.88989 0 8.87866 0C10.8674 0 12.4804 1.61288 12.4804 3.60153Z" fill="var(--fill-0, #66C2EA)"/>
<path id="Vector_3" d="M31.3748 3.6016C31.3748 5.59025 29.7619 7.20313 27.7731 7.20313C25.7843 7.20313 24.1713 5.59025 24.1713 3.6016C24.1713 1.61294 25.7843 6.43053e-05 27.7731 6.43053e-05C29.7619 6.43053e-05 31.3748 1.61294 31.3748 3.6016Z" fill="var(--fill-0, #66C2EA)"/>
</g>
</svg>
