<svg preserveAspectRatio="none" width="100%" height="100%" overflow="visible" style="display: block;" viewBox="0 0 16 16" fill="none" xmlns="http://www.w3.org/2000/svg">
<g id="Local phone" clip-path="url(#clip0_0_18)">
<g id="Vector">
</g>
<path id="Vector_2" d="M12.82 10.1733L11.1267 9.98001C10.72 9.93334 10.32 10.0733 10.0334 10.36L8.80669 11.5867C6.92003 10.6267 5.37336 9.08667 4.41336 7.19334L5.64669 5.96001C5.93336 5.67334 6.07336 5.27334 6.02669 4.86667L5.83336 3.18667C5.75336 2.51334 5.18669 2.00667 4.50669 2.00667H3.35336C2.60003 2.00667 1.97336 2.63334 2.02003 3.38667C2.37336 9.08001 6.92669 13.6267 12.6134 13.98C13.3667 14.0267 13.9934 13.4 13.9934 12.6467V11.4933C14 10.82 13.4934 10.2533 12.82 10.1733Z" fill="var(--fill-0, #0047AB)"/>
</g>
<defs>
<clipPath id="clip0_0_18">
<rect width="16" height="16" fill="white"/>
</clipPath>
</defs>
</svg>
