<svg preserveAspectRatio="none" width="100%" height="100%" overflow="visible" style="display: block;" viewBox="0 0 16 16" fill="none" xmlns="http://www.w3.org/2000/svg">
<g id="Email" clip-path="url(#clip0_0_21)">
<g id="Vector">
</g>
<path id="Vector_2" d="M13.3333 2.66667H2.66667C1.93333 2.66667 1.34 3.26667 1.34 4L1.33333 12C1.33333 12.7333 1.93333 13.3333 2.66667 13.3333H13.3333C14.0667 13.3333 14.6667 12.7333 14.6667 12V4C14.6667 3.26667 14.0667 2.66667 13.3333 2.66667ZM13.0667 5.5L8.35333 8.44667C8.14 8.58 7.86 8.58 7.64667 8.44667L2.93333 5.5C2.76667 5.39333 2.66667 5.21333 2.66667 5.02C2.66667 4.57333 3.15333 4.30667 3.53333 4.54L8 7.33333L12.4667 4.54C12.8467 4.30667 13.3333 4.57333 13.3333 5.02C13.3333 5.21333 13.2333 5.39333 13.0667 5.5Z" fill="var(--fill-0, #0047AB)"/>
</g>
<defs>
<clipPath id="clip0_0_21">
<rect width="16" height="16" fill="white"/>
</clipPath>
</defs>
</svg>
