<svg preserveAspectRatio="none" width="100%" height="100%" overflow="visible" style="display: block;" viewBox="0 0 321 191" fill="none" xmlns="http://www.w3.org/2000/svg">
<g id="Union">
<mask id="path-1-inside-1_6259_1388" fill="white">
<path d="M74.5205 0C88.7448 0 101.269 7.42624 108.579 18.6887C115.714 29.6816 125.86 41 138.966 41H297C310.255 41 321 51.7452 321 65V167C321 180.255 310.255 191 297 191H24C10.7452 191 0 180.255 0 167V57.9825C0 48.6033 7.60334 41 16.9825 41C26.2561 41 33.4927 33.2678 37.1959 24.7657C43.5512 10.1743 57.8713 0.000132113 74.5205 0Z"/>
</mask>
<path d="M74.5205 0C88.7448 0 101.269 7.42624 108.579 18.6887C115.714 29.6816 125.86 41 138.966 41H297C310.255 41 321 51.7452 321 65V167C321 180.255 310.255 191 297 191H24C10.7452 191 0 180.255 0 167V57.9825C0 48.6033 7.60334 41 16.9825 41C26.2561 41 33.4927 33.2678 37.1959 24.7657C43.5512 10.1743 57.8713 0.000132113 74.5205 0Z" fill="var(--fill-0, white)"/>
<path d="M74.5205 0V-1H74.5205L74.5205 0ZM37.1959 24.7657L36.2791 24.3663L37.1959 24.7657ZM108.579 18.6887L107.741 19.2331L108.579 18.6887ZM74.5205 0V1C88.386 1 100.604 8.23751 107.741 19.2331L108.579 18.6887L109.418 18.1442C101.935 6.61497 89.1036 -1 74.5205 -1V0ZM138.966 41V42H297V41V40H138.966V41ZM321 65H320V167H321H322V65H321ZM297 191V190H24V191V192H297V191ZM0 167H1V57.9825H0H-1V167H0ZM37.1959 24.7657L38.1127 25.165C44.3187 10.9166 58.2925 1.00013 74.5205 1L74.5205 0L74.5205 -1C57.4501 -0.999865 42.7838 9.43209 36.2791 24.3663L37.1959 24.7657ZM16.9825 41V42C26.8498 42 34.3472 33.8101 38.1127 25.165L37.1959 24.7657L36.2791 24.3663C32.6382 32.7254 25.6624 40 16.9825 40V41ZM0 57.9825H1C1 49.1556 8.15562 42 16.9825 42V41V40C7.05106 40 -1 48.0511 -1 57.9825H0ZM24 191V190C11.2974 190 1 179.703 1 167H0H-1C-1 180.807 10.1929 192 24 192V191ZM321 167H320C320 179.703 309.703 190 297 190V191V192C310.807 192 322 180.807 322 167H321ZM297 41V42C309.703 42 320 52.2975 320 65H321H322C322 51.1929 310.807 40 297 40V41ZM108.579 18.6887L107.741 19.2331C111.334 24.7699 115.719 30.4413 120.895 34.7363C126.077 39.0354 132.108 42 138.966 42V41V40C132.718 40 127.124 37.3054 122.172 33.1971C117.216 29.0847 112.96 23.6004 109.418 18.1442L108.579 18.6887Z" fill="var(--stroke-0, #E9EAEB)" mask="url(#path-1-inside-1_6259_1388)"/>
</g>
</svg>
