<svg preserveAspectRatio="none" width="100%" height="100%" overflow="visible" style="display: block;" viewBox="0 0 16.6879 24.75" fill="none" xmlns="http://www.w3.org/2000/svg">
<g id="icon">
<path id="Union" d="M12.2454 0C12.6095 9.75582e-05 12.9487 0.184357 13.1477 0.489258H13.1487C13.3226 0.75622 13.3682 1.08455 13.2786 1.38574L13.2317 1.5127L10.6799 7.30371H15.6096C16.0038 7.30372 16.3668 7.51853 16.5559 7.86426C16.7449 8.21019 16.7298 8.63212 16.5168 8.96387L6.69653 24.2549L6.69555 24.2539C6.49175 24.5711 6.14634 24.7499 5.7893 24.75C5.646 24.75 5.50042 24.7216 5.36255 24.6621C4.87827 24.4531 4.61638 23.924 4.74341 23.4121L7.00512 14.3066H1.07837C0.72292 14.3065 0.389695 14.1311 0.188719 13.8379C-0.0121727 13.5446 -0.0556036 13.1703 0.0725078 12.8389L4.7727 0.689453C4.93331 0.274177 5.33329 0.000122782 5.77856 0H12.2454ZM2.65161 12.1504H8.38403C8.71564 12.1504 9.02936 12.3033 9.23364 12.5645C9.41232 12.7931 9.49032 13.0828 9.45337 13.3672L9.42993 13.4883L8.40942 17.5977L13.636 9.45996H9.02759C8.66338 9.45986 8.32328 9.27571 8.12427 8.9707C7.92538 8.66563 7.8945 8.28054 8.04126 7.94727L10.592 2.15625H6.51684L2.65161 12.1504Z" fill="var(--fill-0, #FDFDFD)"/>
</g>
</svg>
