<svg preserveAspectRatio="none" width="100%" height="100%" overflow="visible" style="display: block;" viewBox="0 0 48 48" fill="none" xmlns="http://www.w3.org/2000/svg">
<g id="Container">
<path d="M0 24C0 10.7452 10.7452 0 24 0V0C37.2548 0 48 10.7452 48 24V24C48 37.2548 37.2548 48 24 48V48C10.7452 48 0 37.2548 0 24V24Z" fill="var(--fill-0, white)" fill-opacity="0.2"/>
<path id="Vector" d="M33.9881 14.6215C33.8631 14.5368 33.7194 14.4836 33.5694 14.4664C33.4194 14.4493 33.2674 14.4687 33.1265 14.5231L32.6835 14.7077C31.2395 15.2853 29.6459 15.373 28.1473 14.9572C26.6487 14.5414 25.328 13.6452 24.3881 12.4062C24.3061 12.2847 24.1963 12.1845 24.0679 12.1139C23.9395 12.0433 23.7961 12.0042 23.6496 12C23.5033 12.0025 23.3592 12.0369 23.2274 12.1006C23.0957 12.1644 22.9793 12.256 22.8865 12.3692C21.9501 13.62 20.6274 14.527 19.1232 14.9498C17.619 15.3726 16.0174 15.2875 14.5665 14.7077L14.1235 14.5231C13.9826 14.4687 13.8306 14.4493 13.6806 14.4664C13.5306 14.4836 13.3869 14.5368 13.2619 14.6215C13.1363 14.7051 13.0334 14.8186 12.9625 14.9518C12.8917 15.085 12.855 15.2337 12.8558 15.3846V22.4615C12.8462 25.5728 13.8802 28.5974 15.7923 31.0517C17.7045 33.5061 20.3843 35.2484 23.4035 36H23.625H23.8465C26.8657 35.2484 29.5455 33.5061 31.4577 31.0517C33.3698 28.5974 34.4038 25.5728 34.3942 22.4615V15.3846C34.395 15.2337 34.3583 15.085 34.2875 14.9518C34.2166 14.8186 34.1137 14.7051 33.9881 14.6215ZM32.5481 22.4615C32.5522 25.1159 31.6798 27.6973 30.0662 29.8048C28.4527 31.9124 26.1884 33.4283 23.625 34.1169C21.0616 33.4283 18.7973 31.9124 17.1838 29.8048C15.5702 27.6973 14.6978 25.1159 14.7019 22.4615V16.7015C16.2639 17.1517 17.9187 17.1697 19.4901 16.7535C21.0615 16.3374 22.4906 15.5027 23.625 14.3385C24.7571 15.5061 26.1861 16.3431 27.7583 16.7595C29.3305 17.1758 30.9864 17.1558 32.5481 16.7015V22.4615ZM28.2404 24C28.2372 24.2438 28.1389 24.4768 27.9665 24.6492C27.7941 24.8216 27.5611 24.9199 27.3173 24.9231H24.5481V27.6923C24.5481 27.9371 24.4508 28.1719 24.2777 28.345C24.1046 28.5181 23.8698 28.6154 23.625 28.6154C23.3802 28.6154 23.1454 28.5181 22.9723 28.345C22.7992 28.1719 22.7019 27.9371 22.7019 27.6923V24.9231H19.9327C19.6879 24.9231 19.4531 24.8258 19.28 24.6527C19.1069 24.4796 19.0096 24.2448 19.0096 24C19.0096 23.7552 19.1069 23.5204 19.28 23.3473C19.4531 23.1742 19.6879 23.0769 19.9327 23.0769H22.7019V20.3077C22.7019 20.0629 22.7992 19.8281 22.9723 19.655C23.1454 19.4819 23.3802 19.3846 23.625 19.3846C23.8698 19.3846 24.1046 19.4819 24.2777 19.655C24.4508 19.8281 24.5481 20.0629 24.5481 20.3077V23.0769H27.3173C27.5611 23.0801 27.7941 23.1784 27.9665 23.3508C28.1389 23.5232 28.2372 23.7562 28.2404 24Z" fill="var(--fill-0, #FDFDFD)"/>
</g>
</svg>
