<svg preserveAspectRatio="none" width="100%" height="100%" overflow="visible" style="display: block;" viewBox="0 0 24 24" fill="none" xmlns="http://www.w3.org/2000/svg">
<g id="Group">
<path id="Union" d="M22.7998 10.7998C23.4626 10.7998 24 11.3372 24 12C23.9999 18.6272 18.6272 24 12 24C9.02157 24 6.29716 22.9126 4.2002 21.1172V22.7998C4.20012 23.4623 3.66265 24 3 24C2.33732 24 1.79988 23.4624 1.7998 22.7998V18C1.7998 17.3372 2.33727 16.7998 3 16.7998H7.7998C8.46254 16.7998 9 17.3372 9 18C8.99985 18.6625 8.46245 19.2002 7.7998 19.2002H5.65234C7.34526 20.6941 9.56632 21.5996 12 21.5996C17.3018 21.5996 21.5995 17.3017 21.5996 12C21.5996 11.3373 22.1371 10.7999 22.7998 10.7998ZM21 0C21.6627 3.94895e-05 22.2002 0.53748 22.2002 1.2002V6C22.2002 6.66267 21.6627 7.20016 21 7.2002H16.2002C15.5375 7.2002 15 6.66269 15 6C15 5.33726 15.5374 4.7998 16.2002 4.7998H18.3486C16.6557 3.30554 14.434 2.40043 12 2.40039C6.69813 2.40039 2.40039 6.69808 2.40039 12C2.40034 12.6625 1.86281 13.2001 1.2002 13.2002C0.5375 13.2002 5.30152e-05 12.6626 0 12C0 5.37261 5.37266 0 12 0C14.9783 3.55244e-05 17.7029 1.08664 19.7998 2.88184V1.2002C19.7998 0.537455 20.3372 0 21 0Z" fill="var(--fill-0, #FDFDFD)"/>
</g>
</svg>
