<svg preserveAspectRatio="none" width="100%" height="100%" overflow="visible" style="display: block;" viewBox="0 0 32 32" fill="none" xmlns="http://www.w3.org/2000/svg">
<g id="Icon">
<path id="Vector" d="M26.6667 10.6666H5.33333C4.59695 10.6666 4 11.2635 4 11.9999V14.6666C4 15.403 4.59695 15.9999 5.33333 15.9999H26.6667C27.403 15.9999 28 15.403 28 14.6666V11.9999C28 11.2635 27.403 10.6666 26.6667 10.6666Z" stroke="var(--stroke-0, #FDFDFD)" stroke-width="2.66667" stroke-linecap="round" stroke-linejoin="round"/>
<path id="Vector_2" d="M16 10.6666V27.9999" stroke="var(--stroke-0, #FDFDFD)" stroke-width="2.66667" stroke-linecap="round" stroke-linejoin="round"/>
<path id="Vector_3" d="M25.3334 16V25.3333C25.3334 26.0406 25.0524 26.7189 24.5523 27.219C24.0522 27.719 23.374 28 22.6667 28H9.33338C8.62614 28 7.94786 27.719 7.44776 27.219C6.94766 26.7189 6.66671 26.0406 6.66671 25.3333V16" stroke="var(--stroke-0, #FDFDFD)" stroke-width="2.66667" stroke-linecap="round" stroke-linejoin="round"/>
<path id="Vector_4" d="M10 10.6667C9.11599 10.6667 8.26815 10.3155 7.64302 9.69038C7.0179 9.06526 6.66671 8.21741 6.66671 7.33336C6.66671 6.4493 7.0179 5.60146 7.64302 4.97634C8.26815 4.35121 9.11599 4.00002 10 4.00002C11.2863 3.97761 12.5467 4.6017 13.617 5.79091C14.6873 6.98011 15.5177 8.67923 16 10.6667C16.4823 8.67923 17.3128 6.98011 18.3831 5.79091C19.4533 4.6017 20.7138 3.97761 22 4.00002C22.8841 4.00002 23.7319 4.35121 24.3571 4.97634C24.9822 5.60146 25.3334 6.4493 25.3334 7.33336C25.3334 8.21741 24.9822 9.06526 24.3571 9.69038C23.7319 10.3155 22.8841 10.6667 22 10.6667" stroke="var(--stroke-0, #FDFDFD)" stroke-width="2.66667" stroke-linecap="round" stroke-linejoin="round"/>
</g>
</svg>
