<svg preserveAspectRatio="none" width="100%" height="100%" overflow="visible" style="display: block;" viewBox="0 0 32 32" fill="none" xmlns="http://www.w3.org/2000/svg">
<g id="Icon">
<path id="Vector" d="M2.66657 12.6665C2.6666 11.1828 3.1167 9.73398 3.95742 8.51142C4.79814 7.28886 5.98993 6.35008 7.37538 5.81907C8.76084 5.28805 10.2748 5.18979 11.7173 5.53726C13.1597 5.88473 14.4629 6.66157 15.4546 7.7652C15.5244 7.83989 15.6089 7.89943 15.7027 7.94013C15.7965 7.98084 15.8976 8.00185 15.9999 8.00185C16.1022 8.00185 16.2033 7.98084 16.2971 7.94013C16.3909 7.89943 16.4754 7.83989 16.5452 7.7652C17.5338 6.6544 18.8373 5.87102 20.2821 5.51934C21.7269 5.16765 23.2446 5.26433 24.6331 5.79651C26.0216 6.32869 27.2151 7.27114 28.0547 8.4984C28.8944 9.72567 29.3403 11.1795 29.3332 12.6665C29.3332 15.7199 27.3332 17.9999 25.3332 19.9999L18.0106 27.0839C17.7621 27.3692 17.4558 27.5984 17.112 27.7563C16.7681 27.9141 16.3946 27.997 16.0163 27.9994C15.638 28.0018 15.2634 27.9237 14.9176 27.7702C14.5718 27.6167 14.2626 27.3914 14.0106 27.1092L6.66657 19.9999C4.66657 17.9999 2.66657 15.7332 2.66657 12.6665Z" stroke="var(--stroke-0, #FDFDFD)" stroke-width="2.66667" stroke-linecap="round" stroke-linejoin="round"/>
</g>
</svg>
