<svg preserveAspectRatio="xMidYMid meet"  overflow="visible" style="display: block;" viewBox="0 0 39.0003 54.9992" fill="none" xmlns="http://www.w3.org/2000/svg">
<path id="Vector" d="M38.9865 18.989C38.5659 8.45518 30.0379 0.0350995 19.5726 0.000103306C8.8454 -0.0348929 0.0416171 8.82614 0.000252437 19.717C-0.0135358 22.4817 0.537993 25.1204 1.53764 27.5141C5.81888 39.2798 17.7043 53.3413 19.3176 54.9231C19.421 55.0211 19.5795 55.0281 19.6829 54.9231C21.4478 53.2783 35.2223 37.95 38.3591 24.8404C38.3936 24.7144 38.4211 24.5884 38.4487 24.4624C38.4763 24.3364 38.5108 24.2105 38.5315 24.0845C38.7314 23.1746 38.8624 22.2437 38.9382 21.2918C38.9382 21.2568 38.9382 21.2218 38.9451 21.1798C38.9796 20.7178 39.0003 20.2489 39.0003 19.7799C39.0003 19.493 38.9934 19.22 38.9796 18.968L38.9865 18.989ZM19.5037 30.0688C13.9195 30.0688 9.39003 25.4703 9.39003 19.8009C9.39003 14.1316 13.9195 9.53306 19.5037 9.53306C25.0879 9.53306 29.6174 14.1316 29.6174 19.8009C29.6174 25.4703 25.0879 30.0688 19.5037 30.0688Z" fill="url(#paint0_linear_0_26)"/>
<defs>
<linearGradient id="paint0_linear_0_26" x1="19.5037" y1="6.90835" x2="19.5037" y2="52.5364" gradientUnits="userSpaceOnUse">
<stop stop-color="#2977F2"/>
<stop offset="1" stop-color="#0044B8"/>
</linearGradient>
</defs>
</svg>
