<svg preserveAspectRatio="none" width="100%" height="100%" overflow="visible" style="display: block;" viewBox="0 0 30.4 30.4" fill="none" xmlns="http://www.w3.org/2000/svg">
<path id="Vector" d="M28.8841 3.04H27.36V1.51595C27.36 0.678712 26.6813 0 25.8441 0H25.8359C24.9987 0 24.32 0.678712 24.32 1.51595V3.04H16.7159V1.51595C16.7159 0.678712 16.0372 0 15.2 0H15.1919C14.3547 0 13.6759 0.678712 13.6759 1.51595V3.04H6.07189V1.51595C6.07189 0.678712 5.39318 0 4.55595 0C3.71871 0 3.04 0.678712 3.04 1.51595V3.04H1.51595C0.678712 3.04 0 3.71871 0 4.55595V4.56405C0 5.40129 0.678712 6.08 1.51595 6.08H3.04V13.6841H1.51595C0.678712 13.6841 0 14.3628 0 15.2V15.2081C0 16.0453 0.678712 16.7241 1.51595 16.7241H3.04V24.3281H1.51595C0.678712 24.3281 0 25.0068 0 25.844C0 26.6813 0.678712 27.36 1.51595 27.36H3.04V28.8841C3.04 29.7213 3.71871 30.4 4.55595 30.4H4.56405C5.40129 30.4 6.08 29.7213 6.08 28.8841V27.36H13.6841V28.8841C13.6841 29.7213 14.3628 30.4 15.2 30.4H15.2081C16.0453 30.4 16.7241 29.7213 16.7241 28.8841V27.36H24.3281V28.8841C24.3281 29.7213 25.0068 30.4 25.844 30.4C26.6813 30.4 27.36 29.7213 27.36 28.8841V27.36H28.8841C29.7213 27.36 30.4 26.6813 30.4 25.8441V25.8359C30.4 24.9987 29.7213 24.32 28.8841 24.32H27.36V16.7159H28.8841C29.7213 16.7159 30.4 16.0372 30.4 15.2V15.1919C30.4 14.3547 29.7213 13.6759 28.8841 13.6759H27.36V6.07189H28.8841C29.7213 6.07189 30.4 5.39318 30.4 4.55595C30.4 3.71871 29.7213 3.04 28.8841 3.04ZM13.6841 24.32H6.08V16.7159H13.6841V24.32ZM13.6841 13.6841H6.08V6.08H13.6841V13.6841ZM24.32 24.32H16.7159V16.7159H24.32V24.32ZM24.32 13.6841H16.7159V6.08H24.32V13.6841Z" fill="var(--fill-0, white)"/>
</svg>
