<svg preserveAspectRatio="none" width="100%" height="100%" overflow="visible" style="display: block;" viewBox="0 0 32 32" fill="none" xmlns="http://www.w3.org/2000/svg">
<g id="Frame 9">
<path id="Union" d="M12.6211 0.933594C13.1974 0.442488 14.1317 0.441995 14.708 0.933594L15.8164 1.87891C16.0931 2.11488 16.2489 2.43493 16.249 2.76855V8.43945C16.249 8.77308 16.0929 9.09315 15.8164 9.3291L13.5352 11.2744L15.8164 13.2197C16.0931 13.4557 16.2489 13.7758 16.249 14.1094V23.5654C16.8183 23.3618 17.442 23.2471 18.0967 23.2471C20.7436 23.2471 22.8963 25.0832 22.8965 27.3408C22.8965 29.5986 20.7437 31.4355 18.0967 31.4355C15.4497 31.4354 13.2979 29.5986 13.2979 27.3408V14.6318L11.4482 13.0547L9.60059 14.6318V27.3408C9.60059 29.5985 7.44774 31.4354 4.80078 31.4355C2.1536 31.4355 1.36919e-05 29.5986 0 27.3408C0.000133612 25.0831 2.1537 23.2471 4.80078 23.2471C5.45552 23.2471 6.07919 23.3618 6.64844 23.5654V14.1094C6.64852 13.7757 6.80444 13.4557 7.08105 13.2197L9.36133 11.2744L7.08105 9.3291C6.80433 9.09311 6.64852 8.77312 6.64844 8.43945V2.76855C6.64849 2.43486 6.80444 2.11487 7.08105 1.87891L8.18848 0.933594C8.7647 0.442264 9.69907 0.442397 10.2754 0.933594C10.8516 1.42517 10.8517 2.22134 10.2754 2.71289L9.60059 3.29004V7.91699L11.4482 9.49316L13.2979 7.91699V3.29004L12.6211 2.71387C12.0454 2.22232 12.0453 1.42511 12.6211 0.933594ZM30.2842 0.564453C31.0986 0.564453 31.7614 1.12772 31.7617 1.82324V30.1768C31.7615 30.8718 31.1001 31.4355 30.2852 31.4355H25.8535C25.0386 31.4355 24.3772 30.8718 24.377 30.1768V16C24.377 15.6661 24.5337 15.3454 24.8105 15.1094L25.9814 14.1094L24.8105 13.1094C24.5336 12.8733 24.377 12.5535 24.377 12.2197V5.60254C24.3772 2.81596 27.0238 0.564625 30.2842 0.564453ZM4.80078 25.7646C3.78229 25.7646 2.95238 26.4721 2.95215 27.3408C2.95215 28.2097 3.78208 28.917 4.80078 28.917C5.81937 28.9168 6.64844 28.2096 6.64844 27.3408C6.64821 26.4722 5.81922 25.7648 4.80078 25.7646ZM18.0967 25.7646C17.0782 25.7648 16.2493 26.4722 16.249 27.3408C16.249 28.2096 17.078 28.9169 18.0967 28.917C19.1153 28.917 19.9453 28.2097 19.9453 27.3408C19.9451 26.4721 19.1152 25.7646 18.0967 25.7646ZM27.3301 16.5215V28.917H28.8096V15.3682H28.6807L27.3301 16.5215ZM28.8096 3.4248C28.1268 3.76601 27.3303 4.44709 27.3301 5.60254V11.6982L28.6807 12.8516H28.8096V3.4248Z" fill="var(--fill-0, white)"/>
</g>
</svg>
