<svg preserveAspectRatio="none" width="100%" height="100%" overflow="visible" style="display: block;" viewBox="0 0 32 32" fill="none" xmlns="http://www.w3.org/2000/svg">
<g id="icon-chart">
<path id="Vector" fill-rule="evenodd" clip-rule="evenodd" d="M23.3125 6.25C23.3125 7.97589 21.9134 9.375 20.1875 9.375H10.8125C9.08661 9.375 7.6875 7.97589 7.6875 6.25C6.82456 6.25 6.125 6.94956 6.125 7.8125V26.5625C6.125 27.4255 6.82456 28.125 7.6875 28.125H23.3125C24.1755 28.125 24.875 27.4255 24.875 26.5625V7.8125C24.875 6.94956 24.1755 6.25 23.3125 6.25ZM12.375 0C10.334 0 8.59772 1.30439 7.95423 3.125H7.6875C5.09866 3.125 3 5.22367 3 7.8125V26.5625C3 29.1514 5.09866 31.25 7.6875 31.25H23.3125C25.9014 31.25 28 29.1514 28 26.5625V7.8125C28 5.22367 25.9014 3.125 23.3125 3.125H23.0458C22.4023 1.30439 20.6659 0 18.625 0H12.375ZM12.375 6.25H10.8125V4.6875C10.8125 3.82456 11.5121 3.125 12.375 3.125H18.625C19.488 3.125 20.1875 3.82456 20.1875 4.6875V6.25H18.625H17.0625H13.9375H12.375ZM20.6203 16.6086C21.1636 15.9381 21.0603 14.9542 20.3898 14.4109C19.7194 13.8677 18.7355 13.9709 18.1922 14.6414L14.2936 19.4534L12.767 17.718C12.197 17.07 11.2097 17.0069 10.5618 17.5767C9.91383 18.1467 9.85059 19.1341 10.4205 19.782L13.1694 22.907C13.4733 23.2525 13.9142 23.4466 14.3742 23.4372C14.8344 23.4278 15.2669 23.2162 15.5567 22.8586L20.6203 16.6086Z" fill="var(--fill-0, white)"/>
</g>
</svg>
