<svg preserveAspectRatio="none" width="100%" height="100%" overflow="visible" style="display: block;" viewBox="0 0 24 22.497" fill="none" xmlns="http://www.w3.org/2000/svg">
<g id="Layer 2">
<path id="Vector" d="M23.1248 19.125H19.5C19.3419 18.5838 19.0126 18.1084 18.5614 17.7702C18.1102 17.432 17.5615 17.2491 16.9977 17.2491C16.4338 17.2491 15.8851 17.432 15.434 17.7702C14.9828 18.1084 14.6534 18.5838 14.4953 19.125H0.750045C0.551132 19.125 0.360367 19.204 0.219715 19.3447C0.0790624 19.4853 4.48163e-05 19.6761 4.48163e-05 19.875C4.48163e-05 20.0739 0.0790624 20.2647 0.219715 20.4053C0.360367 20.546 0.551132 20.625 0.750045 20.625H14.4975C14.6563 21.1653 14.9858 21.6397 15.4367 21.9772C15.8876 22.3146 16.4356 22.497 16.9988 22.497C17.562 22.497 18.11 22.3146 18.5609 21.9772C19.0118 21.6397 19.3413 21.1653 19.5 20.625H23.1225C23.3215 20.625 23.5122 20.546 23.6529 20.4053C23.7935 20.2647 23.8725 20.0739 23.8725 19.875C23.8725 19.6761 23.7935 19.4853 23.6529 19.3447C23.5122 19.204 23.3215 19.125 23.1225 19.125H23.1248ZM17.0003 21C16.7778 21 16.5603 20.934 16.3753 20.8104C16.1903 20.6868 16.0461 20.5111 15.9609 20.3055C15.8758 20.1 15.8535 19.8738 15.8969 19.6555C15.9403 19.4373 16.0475 19.2368 16.2048 19.0795C16.3621 18.9222 16.5626 18.815 16.7808 18.7716C16.999 18.7282 17.2252 18.7505 17.4308 18.8356C17.6364 18.9208 17.8121 19.065 17.9357 19.25C18.0593 19.435 18.1253 19.6525 18.1253 19.875C18.1253 20.1734 18.0068 20.4595 17.7958 20.6705C17.5848 20.8815 17.2987 21 17.0003 21Z" fill="var(--fill-0, #F5F7FA)"/>
<path id="Vector_2" d="M21.645 0H2.35504C1.73064 0.000595709 1.13199 0.248902 0.690466 0.690421C0.248947 1.13194 0.000640525 1.7306 4.48163e-05 2.355V14.145C0.000640525 14.7694 0.248947 15.3681 0.690466 15.8096C1.13199 16.2511 1.73064 16.4994 2.35504 16.5H21.645C22.2694 16.4994 22.8681 16.2511 23.3096 15.8096C23.7511 15.3681 23.9994 14.7694 24 14.145V2.355C23.9994 1.7306 23.7511 1.13194 23.3096 0.690421C22.8681 0.248902 22.2694 0.000595709 21.645 0ZM22.5 14.145C22.4998 14.3717 22.4097 14.5891 22.2494 14.7494C22.0891 14.9097 21.8717 14.9998 21.645 15H2.35504C2.12835 14.9998 1.91099 14.9097 1.75069 14.7494C1.59039 14.5891 1.50024 14.3717 1.50004 14.145V2.355C1.50024 2.1283 1.59039 1.91094 1.75069 1.75064C1.91099 1.59034 2.12835 1.5002 2.35504 1.5H21.645C21.8717 1.5002 22.0891 1.59034 22.2494 1.75064C22.4097 1.91094 22.4998 2.1283 22.5 2.355V14.145Z" fill="var(--fill-0, #F5F7FA)"/>
<path id="Vector_3" d="M16.1475 7.614L10.1475 3.864C10.034 3.79304 9.90356 3.75377 9.76973 3.75026C9.6359 3.74674 9.50356 3.77911 9.38647 3.84402C9.26937 3.90892 9.17178 4.00398 9.10383 4.11933C9.03588 4.23468 9.00004 4.36612 9.00004 4.5V12C9.00004 12.1339 9.03588 12.2653 9.10383 12.3807C9.17178 12.496 9.26937 12.5911 9.38647 12.656C9.50356 12.7209 9.6359 12.7533 9.76973 12.7497C9.90356 12.7462 10.034 12.707 10.1475 12.636L16.1475 8.886C16.2561 8.81874 16.3456 8.72488 16.4077 8.61332C16.4699 8.50176 16.5025 8.37618 16.5025 8.2485C16.5025 8.12081 16.4699 7.99524 16.4077 7.88368C16.3456 7.77212 16.2561 7.67826 16.1475 7.611V7.614ZM10.5 10.65V5.85L14.3348 8.25L10.5 10.65Z" fill="var(--fill-0, #F5F7FA)"/>
</g>
</svg>
