<svg preserveAspectRatio="none" width="100%" height="100%" overflow="visible" style="display: block;" viewBox="0 0 24 22.5" fill="none" xmlns="http://www.w3.org/2000/svg">
<g id="Group">
<path id="Vector" d="M23.25 0H15C13.8682 0 13.1212 0.6285 12.5757 1.08736C12.3892 1.24425 12.1085 1.48041 12 1.49958C11.8915 1.48041 11.6108 1.24425 11.4243 1.08736C10.8788 0.6285 10.1318 0 9 0H0.75C0.335766 0 0 0.335812 0 0.75V21.75C0 22.1642 0.335766 22.5 0.75 22.5H23.25C23.6642 22.5 24 22.1642 24 21.75V0.75C24 0.335812 23.6642 0 23.25 0ZM15 1.5H22.5V18H15C13.9841 18 13.2784 18.5063 12.75 18.9418V2.80772C13.0366 2.65969 13.2914 2.44547 13.5413 2.23519C13.9908 1.85714 14.4152 1.5 15 1.5ZM9 1.5C9.58477 1.5 10.0092 1.85714 10.4587 2.23523C10.7086 2.44552 10.9634 2.65973 11.25 2.80777V18.9418C10.7216 18.5063 10.0159 18 9 18H1.5V1.5H9ZM12 21H1.5V19.5H9C9.58477 19.5 10.0092 19.8571 10.4587 20.2352C10.9056 20.6112 11.3678 21 12 21C12.6322 21 13.0944 20.6112 13.5413 20.2352C13.9908 19.8571 14.4152 19.5 15 19.5H22.5V21H12Z" fill="var(--fill-0, #F5F7FA)"/>
<path id="Vector_2" d="M3.75 4.5H8.25C8.66423 4.5 9 4.16419 9 3.75C9 3.33581 8.66423 3 8.25 3H3.75C3.33577 3 3 3.33581 3 3.75C3 4.16419 3.33577 4.5 3.75 4.5Z" fill="var(--fill-0, #F5F7FA)"/>
<path id="Vector_3" d="M3.75 12H8.25C8.66423 12 9 11.6642 9 11.25C9 10.8358 8.66423 10.5 8.25 10.5H3.75C3.33577 10.5 3 10.8358 3 11.25C3 11.6642 3.33577 12 3.75 12Z" fill="var(--fill-0, #F5F7FA)"/>
<path id="Vector_4" d="M3.75 9H8.25C8.66423 9 9 8.66419 9 8.25C9 7.83581 8.66423 7.5 8.25 7.5H3.75C3.33577 7.5 3 7.83581 3 8.25C3 8.66419 3.33577 9 3.75 9Z" fill="var(--fill-0, #F5F7FA)"/>
<path id="Vector_5" d="M3.75 16.5H8.25C8.66423 16.5 9 16.1642 9 15.75C9 15.3358 8.66423 15 8.25 15H3.75C3.33577 15 3 15.3358 3 15.75C3 16.1642 3.33577 16.5 3.75 16.5Z" fill="var(--fill-0, #F5F7FA)"/>
<path id="Vector_6" d="M4.5 8.25L4.5 3.75C4.5 3.33577 4.16419 3 3.75 3C3.33581 3 3 3.33577 3 3.75L3 8.25C3 8.66423 3.33581 9 3.75 9C4.16419 9 4.5 8.66423 4.5 8.25Z" fill="var(--fill-0, #F5F7FA)"/>
<path id="Vector_7" d="M4.5 15.75L4.5 11.25C4.5 10.8358 4.16419 10.5 3.75 10.5C3.33581 10.5 3 10.8358 3 11.25L3 15.75C3 16.1642 3.33581 16.5 3.75 16.5C4.16419 16.5 4.5 16.1642 4.5 15.75Z" fill="var(--fill-0, #F5F7FA)"/>
<path id="Vector_8" d="M9 8.25L9 3.75C9 3.33577 8.66419 3 8.25 3C7.83581 3 7.5 3.33577 7.5 3.75L7.5 8.25C7.5 8.66423 7.83581 9 8.25 9C8.66419 9 9 8.66423 9 8.25Z" fill="var(--fill-0, #F5F7FA)"/>
<path id="Vector_9" d="M9 15.75L9 11.25C9 10.8358 8.66419 10.5 8.25 10.5C7.83581 10.5 7.5 10.8358 7.5 11.25L7.5 15.75C7.5 16.1642 7.83581 16.5 8.25 16.5C8.66419 16.5 9 16.1642 9 15.75Z" fill="var(--fill-0, #F5F7FA)"/>
<path id="Vector_10" d="M15 11.25L15 15.75C15 16.1642 15.3358 16.5 15.75 16.5C16.1642 16.5 16.5 16.1642 16.5 15.75L16.5 11.25C16.5 10.8358 16.1642 10.5 15.75 10.5C15.3358 10.5 15 10.8358 15 11.25Z" fill="var(--fill-0, #F5F7FA)"/>
<path id="Vector_11" d="M15 3.75L15 8.25C15 8.66423 15.3358 9 15.75 9C16.1642 9 16.5 8.66423 16.5 8.25L16.5 3.75C16.5 3.33577 16.1642 3 15.75 3C15.3358 3 15 3.33577 15 3.75Z" fill="var(--fill-0, #F5F7FA)"/>
<path id="Vector_12" d="M19.5 11.25L19.5 15.75C19.5 16.1642 19.8358 16.5 20.25 16.5C20.6642 16.5 21 16.1642 21 15.75L21 11.25C21 10.8358 20.6642 10.5 20.25 10.5C19.8358 10.5 19.5 10.8358 19.5 11.25Z" fill="var(--fill-0, #F5F7FA)"/>
<path id="Vector_13" d="M19.5 3.75L19.5 8.25C19.5 8.66423 19.8358 9 20.25 9C20.6642 9 21 8.66423 21 8.25L21 3.75C21 3.33577 20.6642 3 20.25 3C19.8358 3 19.5 3.33577 19.5 3.75Z" fill="var(--fill-0, #F5F7FA)"/>
<path id="Vector_14" d="M15.75 12H20.25C20.6642 12 21 11.6642 21 11.25C21 10.8358 20.6642 10.5 20.25 10.5H15.75C15.3358 10.5 15 10.8358 15 11.25C15 11.6642 15.3358 12 15.75 12Z" fill="var(--fill-0, #F5F7FA)"/>
<path id="Vector_15" d="M15.75 4.5H20.25C20.6642 4.5 21 4.16419 21 3.75C21 3.33581 20.6642 3 20.25 3H15.75C15.3358 3 15 3.33581 15 3.75C15 4.16419 15.3358 4.5 15.75 4.5Z" fill="var(--fill-0, #F5F7FA)"/>
<path id="Vector_16" d="M15.75 16.5H20.25C20.6642 16.5 21 16.1642 21 15.75C21 15.3358 20.6642 15 20.25 15H15.75C15.3358 15 15 15.3358 15 15.75C15 16.1642 15.3358 16.5 15.75 16.5Z" fill="var(--fill-0, #F5F7FA)"/>
<path id="Vector_17" d="M15.75 9H20.25C20.6642 9 21 8.66419 21 8.25C21 7.83581 20.6642 7.5 20.25 7.5H15.75C15.3358 7.5 15 7.83581 15 8.25C15 8.66419 15.3358 9 15.75 9Z" fill="var(--fill-0, #F5F7FA)"/>
</g>
</svg>
