<svg preserveAspectRatio="none" width="100%" height="100%" overflow="visible" style="display: block;" viewBox="0 0 19.5 18.75" fill="none" xmlns="http://www.w3.org/2000/svg">
<g id="Group">
<path id="Vector" d="M16.5 0H3C1.3455 0 0 1.3455 0 3V18C0 18.291 0.168 18.5565 0.432 18.6795C0.5325 18.726 0.642 18.75 0.75 18.75C0.9225 18.75 1.0935 18.69 1.23 18.576L5.5215 15H16.5C18.1545 15 19.5 13.6545 19.5 12V3C19.5 1.3455 18.1545 0 16.5 0ZM18 12C18 12.8265 17.328 13.5 16.5 13.5H5.25C5.0745 13.5 4.905 13.5615 4.77 13.674L1.5 16.3995V3C1.5 2.1735 2.172 1.5 3 1.5H16.5C17.328 1.5 18 2.1735 18 3V12Z" fill="var(--fill-0, #F5F7FA)"/>
</g>
</svg>
