<svg preserveAspectRatio="none" width="100%" height="100%" overflow="visible" style="display: block;" viewBox="0 0 18 18" fill="none" xmlns="http://www.w3.org/2000/svg">
<g id="Group">
<path id="Vector" d="M15 0C14.586 0 14.25 0.336 14.25 0.75C14.25 1.164 14.586 1.5 15 1.5C15.828 1.5 16.5 2.1735 16.5 3V15.6885L13.968 13.6635C13.836 13.5585 13.6695 13.5 13.5 13.5H3C2.172 13.5 1.5 13.5765 1.5 12.75V12C1.5 11.586 1.164 11.25 0.75 11.25C0.336 11.25 0 11.586 0 12V12.75C0 14.4045 1.3455 15 3 15H13.236L16.7805 17.8365C16.917 17.9445 17.0835 18 17.25 18C17.3595 18 17.4705 17.976 17.5755 17.9265C17.835 17.8005 18 17.538 18 17.25V3C18 1.3455 16.6545 0 15 0Z" fill="var(--fill-0, #F5F7FA)"/>
</g>
</svg>
