<svg preserveAspectRatio="none" width="100%" height="100%" overflow="visible" style="display: block;" viewBox="0 0 122 18" fill="none" xmlns="http://www.w3.org/2000/svg">
<g id="Frame 427318326">
<path id="Vector" d="M15.6727 0.728572L15.6604 17.0387L11.8276 17.0358L11.8326 10.3474L4.3093 10.3417L4.30426 17.0302L0.471435 17.0273L0.483713 0.717138L4.31654 0.720023L4.31169 7.15628L11.835 7.16194L11.8399 0.725687L15.6727 0.728572Z" fill="var(--fill-0, white)"/>
<path id="Vector_2" d="M17.679 8.87111C17.6827 4.0229 21.5182 0.438672 26.7551 0.442614C31.992 0.446556 35.8127 4.01787 35.809 8.88476C35.8053 13.7517 31.9414 17.3172 26.7424 17.3133C21.5434 17.3094 17.6754 13.7193 17.679 8.87111ZM31.9287 8.88184C31.9311 5.78048 29.7127 3.6583 26.7527 3.65607C23.7927 3.65384 21.5711 5.77268 21.5688 8.87404C21.5664 11.9754 23.7943 14.0976 26.7448 14.0998C29.6953 14.102 31.9264 11.9832 31.9287 8.88184Z" fill="var(--fill-0, white)"/>
<path id="Vector_3" d="M37.8262 15.4164L39.1281 12.5776C40.522 13.5782 42.6086 14.2804 44.5915 14.2819C46.8684 14.2836 47.7892 13.537 47.7899 12.5374C47.7922 9.48278 38.1612 11.5774 38.1658 5.51476C38.1678 2.74035 40.4465 0.434726 45.1522 0.438268C47.2298 0.439832 49.3641 0.927193 50.9003 1.89052L49.7122 4.75745C48.176 3.89688 46.5919 3.47532 45.1214 3.47422C42.854 3.47251 41.971 4.31257 41.9703 5.34013C41.968 8.34808 51.599 6.28153 51.5945 12.2694C51.5925 14.9971 49.2948 17.3214 44.5607 17.3178C41.9328 17.3158 39.2864 16.5479 37.8168 15.4258L37.8262 15.4164Z" fill="var(--fill-0, white)"/>
<path id="Vector_4" d="M67.9748 6.65074C67.9721 10.2846 65.2001 12.5431 60.7791 12.5398L57.4396 12.5373L57.4362 17.0305L53.6034 17.0276L53.6157 0.717449L60.788 0.722848C65.2185 0.726183 67.9776 2.98889 67.9748 6.65074ZM64.0946 6.64782C64.0959 4.85426 62.9108 3.80713 60.5675 3.80536L57.4462 3.80301L57.4419 9.46393L60.5632 9.46628C62.9066 9.46804 64.0932 8.42269 64.0946 6.64782Z" fill="var(--fill-0, white)"/>
<path id="Vector_5" d="M69.9916 0.721412L73.8244 0.724298L73.8121 17.0345L69.9793 17.0316L69.9916 0.721412Z" fill="var(--fill-0, white)"/>
<path id="Vector_6" d="M81.1377 3.79475L75.8343 3.79076L75.8367 0.71742L90.2761 0.72829L90.2738 3.80163L84.9705 3.79763L84.9605 17.0345L81.1277 17.0316L81.1377 3.79475Z" fill="var(--fill-0, white)"/>
<path id="Vector_7" d="M101.371 13.5422L93.6769 13.5364L92.2037 17.029L88.2761 17.026L95.6693 0.721422L99.4547 0.724272L106.852 17.04L102.829 17.037L101.362 13.5422L101.371 13.5422ZM100.159 10.6734L97.5355 4.42204L94.9029 10.6695L100.159 10.6734Z" fill="var(--fill-0, white)"/>
<path id="Vector_8" d="M108.876 0.718277L112.709 0.721162L112.699 13.958L121.01 13.9642L121.008 17.0376L108.864 17.0284L108.876 0.718277Z" fill="var(--fill-0, white)"/>
</g>
</svg>
