<svg preserveAspectRatio="none" width="100%" height="100%" overflow="visible" style="display: block;" viewBox="0 0 106.014 18.0798" fill="none" xmlns="http://www.w3.org/2000/svg">
<g id="Frame 427318327">
<path id="Vector" d="M9.4115 3.30192C11.0887 3.30192 12.4206 3.82284 13.5988 4.94594L13.974 5.3043L16.0939 3.21695L15.7562 2.84751C14.2216 1.17394 11.9967 0.287277 9.32145 0.287277C4.13611 0.287277 0.369055 3.83761 0.369055 8.72533C0.369055 13.613 4.1136 17.1634 9.27643 17.1634C11.674 17.1634 13.9702 16.4023 15.5686 15.0723L15.7562 14.9172V8.11575H12.537V13.384C11.6215 13.8975 10.5896 14.1487 9.38523 14.1487C6.07593 14.1487 3.67461 11.8693 3.67461 8.72533C3.67461 5.58138 6.08718 3.30192 9.40775 3.30192H9.4115Z" fill="var(--fill-0, white)"/>
<path id="Vector_2" d="M21.3919 0.464602H18.0826V16.9897H21.3919V0.464602Z" fill="var(--fill-0, white)"/>
<path id="Vector_3" d="M36.4038 8.31894C37.3606 7.52094 37.8934 6.34981 37.8934 4.98657C37.8934 2.15295 35.5897 0.46091 31.725 0.46091H24.1421V16.986H32.1715C37.8709 16.986 38.7226 14.0416 38.7226 12.2831C38.7226 10.5245 37.8897 9.07629 36.4001 8.31894H36.4038ZM31.5262 7.20692H27.4552V3.30192H31.5262C33.556 3.30192 34.5879 3.95952 34.5879 5.25627C34.5879 6.55301 33.5598 7.21061 31.5262 7.21061V7.20692ZM27.4552 10.0442H32.089C35.0193 10.0442 35.3983 11.1452 35.3983 12.1057C35.3983 13.0663 35.0231 14.1487 32.089 14.1487H27.4552V10.0442Z" fill="var(--fill-0, white)"/>
<path id="Vector_4" d="M52.5039 8.31894C53.4607 7.52094 53.9935 6.34981 53.9935 4.98657C53.9935 2.15295 51.6897 0.460906 47.8251 0.460906H40.2422V16.986H48.2716C53.971 16.986 54.8227 14.0416 54.8227 12.283C54.8227 10.5245 53.9898 9.07629 52.5002 8.31894H52.5039ZM47.6225 7.20692H43.5515V3.30191H47.6225C49.6524 3.30191 50.6842 3.95952 50.6842 5.25626C50.6842 6.553 49.6524 7.21061 47.6225 7.21061V7.20692ZM43.5515 10.0442H48.1853C51.1157 10.0442 51.4946 11.1452 51.4946 12.1057C51.4946 13.0663 51.1194 14.1487 48.1853 14.1487H43.5515V10.0442Z" fill="var(--fill-0, white)"/>
<path id="Vector_5" d="M59.6514 10.0664H67.5307V7.14043H59.6514V3.43492H68.495V0.464611H56.3421V16.9861H68.8102V14.0157H59.6514V10.0664Z" fill="var(--fill-0, white)"/>
<path id="Vector_6" d="M81.4659 9.69696C81.4659 12.6931 80.1865 14.1487 77.5525 14.1487C74.9186 14.1487 73.6617 12.7338 73.6617 9.69696V0.464609H70.3524V9.78932C70.3524 14.4775 72.9675 17.1671 77.53 17.1671C82.0925 17.1671 84.7077 14.4775 84.7077 9.78932V0.464609H81.4659V9.70066V9.69696Z" fill="var(--fill-0, white)"/>
<path id="Vector_7" d="M105.115 0.464604H102.44L96.2714 10.8348L90.0205 0.464604H87.3453V16.986H90.5646V7.14781L95.4122 15.1093H97.0518L101.899 7.085L101.918 16.986H105.138L105.115 0.464604Z" fill="var(--fill-0, white)"/>
</g>
</svg>
