<svg preserveAspectRatio="none" width="100%" height="100%" overflow="visible" style="display: block;" viewBox="0 0 104.769 16.8798" fill="none" xmlns="http://www.w3.org/2000/svg">
<g id="Group">
<path id="Vector" d="M9.04245 3.01465C10.7196 3.01465 12.0516 3.53556 13.2297 4.65866L13.6049 5.01702L15.7249 2.92967L15.3872 2.56023C13.8526 0.88666 11.6276 0 8.9524 0C3.76706 0 0 3.55034 0 8.43805C0 13.3258 3.74455 16.8761 8.90737 16.8761C11.3049 16.8761 13.6012 16.1151 15.1996 14.7851L15.3872 14.6299V7.82847H12.1679V13.0967C11.2524 13.6102 10.2206 13.8615 9.01618 13.8615C5.70687 13.8615 3.30556 11.582 3.30556 8.43805C3.30556 5.2941 5.71813 3.01465 9.03869 3.01465H9.04245Z" fill="var(--fill-0, white)"/>
<path id="Vector_2" d="M21.0227 0.177332H17.7134V16.7025H21.0227V0.177332Z" fill="var(--fill-0, white)"/>
<path id="Vector_3" d="M36.0347 8.03167C36.9915 7.23367 37.5243 6.06254 37.5243 4.6993C37.5243 1.86568 35.2205 0.173638 31.3559 0.173638H23.773V16.6988H31.8024C37.5018 16.6988 38.3535 13.7543 38.3535 11.9958C38.3535 10.2372 37.5205 8.78902 36.031 8.03167H36.0347ZM31.157 6.91965H27.0861V3.01465H31.157C33.1869 3.01465 34.2187 3.67225 34.2187 4.96899C34.2187 6.26573 33.1907 6.92334 31.157 6.92334V6.91965ZM27.0861 9.75696H31.7198C34.6502 9.75696 35.0292 10.8579 35.0292 11.8184C35.0292 12.779 34.654 13.8615 31.7198 13.8615H27.0861V9.75696Z" fill="var(--fill-0, white)"/>
<path id="Vector_4" d="M52.1348 8.03167C53.0915 7.23367 53.6243 6.06254 53.6243 4.6993C53.6243 1.86568 51.3206 0.173638 47.4559 0.173638H39.8731V16.6988H47.9024C53.6018 16.6988 54.4535 13.7543 54.4535 11.9958C54.4535 10.2372 53.6206 8.78902 52.131 8.03167H52.1348ZM47.2533 6.91965H43.1824V3.01465H47.2533C49.2832 3.01465 50.315 3.67225 50.315 4.96899C50.315 6.26573 49.2832 6.92334 47.2533 6.92334V6.91965ZM43.1824 9.75696H47.8161C50.7465 9.75696 51.1255 10.8579 51.1255 11.8184C51.1255 12.779 50.7503 13.8615 47.8161 13.8615H43.1824V9.75696Z" fill="var(--fill-0, white)"/>
<path id="Vector_5" d="M59.2824 9.77913H67.1617V6.85315H59.2824V3.14765H68.126V0.177332H55.9731V16.6988H68.4412V13.7285H59.2824V9.77913Z" fill="var(--fill-0, white)"/>
<path id="Vector_6" d="M81.0969 9.40968C81.0969 12.4059 79.8174 13.8615 77.1835 13.8615C74.5495 13.8615 73.2926 12.4465 73.2926 9.40968V0.177332H69.9833V9.50204C69.9833 14.1903 72.5985 16.8798 77.1609 16.8798C81.7234 16.8798 84.3386 14.1903 84.3386 9.50204V0.177332H81.0969V9.41338V9.40968Z" fill="var(--fill-0, white)"/>
<path id="Vector_7" d="M104.746 0.177332H102.071L95.9024 10.5476L89.6515 0.177332H86.9763V16.6988H90.1956V6.86054L95.0432 14.822H96.6829L101.531 6.79773L101.549 16.6988H104.769L104.746 0.177332Z" fill="var(--fill-0, white)"/>
</g>
</svg>
