<svg preserveAspectRatio="none" width="100%" height="100%" overflow="visible" style="display: block;" viewBox="0 0 103.283 6.67583" fill="none" xmlns="http://www.w3.org/2000/svg">
<g id="Group">
<path id="Vector" d="M4.84015 3.23631H6.22465V5.85196C5.50426 6.38765 4.50997 6.67212 3.5757 6.67212C1.51583 6.67212 0 5.27933 0 3.33606C0 1.3928 1.51583 0 3.60197 0C4.75385 0 5.70687 0.387914 6.34472 1.11571L5.36918 1.99868C4.89267 1.49993 4.34112 1.27088 3.67701 1.27088C2.40507 1.27088 1.53459 2.10951 1.53459 3.33606C1.53459 4.56261 2.40507 5.40124 3.65825 5.40124C4.07098 5.40124 4.45369 5.32735 4.83639 5.12416V3.23631H4.84015Z" fill="var(--fill-0, white)"/>
<path id="Vector_2" d="M13.0009 5.3643V6.56129H7.92809V0.110833H12.8808V1.30782H9.43641V2.70801H12.4793V3.86806H9.43641V5.3606H13.0009V5.3643Z" fill="var(--fill-0, white)"/>
<path id="Vector_3" d="M20.5162 0.110833V6.56129H19.2705L16.0025 2.6452V6.56129H14.5054V0.110833H15.7586L19.0154 4.02692V0.110833H20.5125H20.5162Z" fill="var(--fill-0, white)"/>
<path id="Vector_4" d="M27.4425 5.3643V6.56129H22.3697V0.110833H27.3224V1.30782H23.8781V2.70801H26.921V3.86806H23.8781V5.3606H27.4425V5.3643Z" fill="var(--fill-0, white)"/>
<path id="Vector_5" d="M33.1231 6.56498L31.8587 4.76949H30.4629V6.56498H28.9471V0.114528H31.7836C33.5358 0.114528 34.6277 1.00858 34.6277 2.45679C34.6277 3.42473 34.1324 4.13405 33.2807 4.49241L34.7515 6.56498H33.1231ZM31.7011 1.32999H30.4667V3.57989H31.7011C32.6278 3.57989 33.0969 3.15503 33.0969 2.45679C33.0969 1.75854 32.6278 1.33369 31.7011 1.33369V1.32999Z" fill="var(--fill-0, white)"/>
<path id="Vector_6" d="M40.4434 5.17958H37.4004L36.8189 6.56129H35.2655L38.1846 0.110833H39.6817L42.612 6.56129H41.0212L40.4396 5.17958H40.4434ZM39.9669 4.04539L38.9275 1.57382L37.8882 4.04539H39.9669Z" fill="var(--fill-0, white)"/>
<path id="Vector_7" d="M43.5988 0.110833H45.1147V5.34582H48.4015V6.56129H43.5988V0.110833Z" fill="var(--fill-0, white)"/>
<path id="Vector_8" d="M58.5095 0.110833V6.56129H56.9937V3.91608H54.0183V6.56129H52.5025V0.110833H54.0183V2.65629H56.9937V0.110833H58.5095Z" fill="var(--fill-0, white)"/>
<path id="Vector_9" d="M59.9465 3.33606C59.9465 1.41866 61.4624 2.88723e-07 63.5335 2.88723e-07C65.6046 2.88723e-07 67.1167 1.41127 67.1167 3.33606C67.1167 5.26085 65.5896 6.67212 63.5335 6.67212C61.4774 6.67212 59.9465 5.25346 59.9465 3.33606ZM65.5821 3.33606C65.5821 2.10951 64.7041 1.27088 63.5335 1.27088C62.3629 1.27088 61.4849 2.10951 61.4849 3.33606C61.4849 4.56261 62.3666 5.40124 63.5335 5.40124C64.7004 5.40124 65.5821 4.56261 65.5821 3.33606Z" fill="var(--fill-0, white)"/>
<path id="Vector_10" d="M68.0435 5.92585L68.5575 4.80275C69.109 5.19805 69.9345 5.47513 70.7187 5.47513C71.6192 5.47513 71.9831 5.17958 71.9831 4.78427C71.9831 3.5762 68.1748 4.40744 68.1748 2.00976C68.1748 0.912521 69.0753 2.88723e-07 70.9363 2.88723e-07C71.758 2.88723e-07 72.6022 0.19211 73.21 0.572635L72.741 1.70682C72.1332 1.36693 71.5066 1.20069 70.925 1.20069C70.0283 1.20069 69.6794 1.53318 69.6794 1.93957C69.6794 3.12917 73.4877 2.30901 73.4877 4.67713C73.4877 5.7559 72.5797 6.67582 70.7074 6.67582C69.6681 6.67582 68.6213 6.37287 68.0397 5.92954L68.0435 5.92585Z" fill="var(--fill-0, white)"/>
<path id="Vector_11" d="M80.5115 2.4531C80.5115 3.89022 79.4159 4.78427 77.6675 4.78427H76.3467V6.56129H74.8309V0.110833H77.6675C79.4197 0.110833 80.5115 1.00488 80.5115 2.4531ZM78.9769 2.4531C78.9769 1.74377 78.5079 1.32999 77.5812 1.32999H76.3467V3.56881H77.5812C78.5079 3.56881 78.9769 3.15504 78.9769 2.4531Z" fill="var(--fill-0, white)"/>
<path id="Vector_12" d="M81.8885 0.110833H83.4044V6.56129H81.8885V0.110833Z" fill="var(--fill-0, white)"/>
<path id="Vector_13" d="M86.6124 1.32999H84.515V0.114528H90.2256V1.32999H88.1282V6.56498H86.6124V1.32999Z" fill="var(--fill-0, white)"/>
<path id="Vector_14" d="M95.3284 5.17958H92.2855L91.7039 6.56129H90.1506L93.0696 0.110833H94.5667L97.4971 6.56129H95.9062L95.3246 5.17958H95.3284ZM94.8481 4.04539L93.8088 1.57382L92.7695 4.04539H94.8481Z" fill="var(--fill-0, white)"/>
<path id="Vector_15" d="M98.4801 0.110833H99.9959V5.34582H103.283V6.56129H98.4801V0.110833Z" fill="var(--fill-0, white)"/>
</g>
</svg>
