<svg preserveAspectRatio="none" width="100%" height="100%" overflow="visible" style="display: block;" viewBox="0 0 32.088 24.5988" fill="none" xmlns="http://www.w3.org/2000/svg">
<g id="Group">
<path id="Vector" d="M13.3942 12.2137C8.52774 11.4527 6.64796 7.76567 2.79836 10.0377C-1.05125 12.3098 -0.548475 17.5411 2.01042 20.5447C6.13768 25.388 11.5219 25.4619 19.3637 23.0162C27.2055 20.5705 29.9557 17.2566 30.9237 16.0338C32.2932 14.3048 32.7585 11.22 30.6198 10.1005C27.1604 8.29028 25.5621 14.1127 13.3942 12.2101V12.2137Z" fill="var(--fill-0, #66C2EA)"/>
<path id="Vector_2" d="M11.0904 3.15134C11.0904 4.89141 9.65711 6.30268 7.88989 6.30268C6.12267 6.30268 4.68939 4.89141 4.68939 3.15134C4.68939 1.41127 6.12267 0 7.88989 0C9.65711 0 11.0904 1.41127 11.0904 3.15134Z" fill="var(--fill-0, #66C2EA)"/>
<path id="Vector_3" d="M27.8808 3.15134C27.8808 4.89141 26.4475 6.30268 24.6803 6.30268C22.9131 6.30268 21.4798 4.89141 21.4798 3.15134C21.4798 1.41127 22.9131 0 24.6803 0C26.4475 0 27.8808 1.41127 27.8808 3.15134Z" fill="var(--fill-0, #66C2EA)"/>
</g>
</svg>
