<svg preserveAspectRatio="none" width="100%" height="100%" overflow="visible" style="display: block;" viewBox="0 0 141.756 7.2403" fill="none" xmlns="http://www.w3.org/2000/svg">
<g id="KANG REPAIR HERNIA CENTER">
<path id="Vector" d="M136.416 7.16462L136.421 0.182804L139.039 0.184775C139.575 0.185179 140.025 0.278699 140.389 0.465336C140.755 0.651975 141.03 0.913547 141.217 1.25005C141.405 1.58428 141.499 1.97413 141.499 2.41958C141.498 2.86731 141.403 3.25587 141.211 3.58527C141.023 3.91241 140.744 4.16561 140.376 4.34487C140.007 4.52187 139.555 4.61016 139.019 4.60976L137.154 4.60836L137.155 3.55836L138.849 3.55963C139.163 3.55987 139.419 3.51688 139.62 3.43067C139.82 3.34218 139.967 3.21388 140.063 3.04577C140.161 2.87539 140.21 2.66634 140.21 2.41861C140.21 2.17088 140.162 1.95948 140.064 1.78441C139.966 1.60706 139.818 1.47286 139.618 1.3818C139.418 1.28847 139.16 1.24168 138.844 1.24145L137.685 1.24057L137.68 7.16557L136.416 7.16462ZM140.025 4.0037L141.751 7.16864L140.339 7.16757L138.644 4.00266L140.025 4.0037Z" fill="var(--fill-0, white)"/>
<path id="Vector_2" d="M130.584 7.16023L130.59 0.178413L135.13 0.181832L135.13 1.24206L131.854 1.23959L131.852 3.13505L134.893 3.13734L134.892 4.19756L131.851 4.19527L131.85 6.10095L135.153 6.10344L135.152 7.16367L130.584 7.16023Z" fill="var(--fill-0, white)"/>
<path id="Vector_3" d="M123.944 1.23364L123.945 0.173412L129.516 0.177605L129.515 1.23783L127.357 1.23621L127.353 7.1578L126.098 7.15685L126.102 1.23526L123.944 1.23364Z" fill="var(--fill-0, white)"/>
<path id="Vector_4" d="M122.874 0.172608L122.869 7.15442L121.744 7.15358L118.458 2.39542L118.4 2.39538L118.396 7.15106L117.131 7.15011L117.136 0.168289L118.268 0.169141L121.551 4.9307L121.612 4.93075L121.616 0.171661L122.874 0.172608Z" fill="var(--fill-0, white)"/>
<path id="Vector_5" d="M111.3 7.14572L111.305 0.163898L115.846 0.167317L115.845 1.22754L112.569 1.22508L112.568 3.12053L115.609 3.12282L115.608 4.18305L112.567 4.18076L112.566 6.08644L115.869 6.08893L115.868 7.14915L111.3 7.14572Z" fill="var(--fill-0, white)"/>
<path id="Vector_6" d="M110.145 2.51871L108.87 2.51775C108.834 2.30863 108.767 2.12335 108.67 1.96191C108.572 1.7982 108.45 1.65948 108.305 1.54573C108.16 1.43198 107.994 1.34663 107.808 1.28967C107.623 1.23044 107.425 1.20075 107.211 1.20059C106.831 1.2003 106.495 1.2955 106.202 1.48619C105.908 1.67461 105.679 1.95171 105.512 2.31749C105.346 2.681 105.263 3.12526 105.263 3.65026C105.262 4.18435 105.345 4.63441 105.51 5.00045C105.678 5.36421 105.908 5.63938 106.198 5.82596C106.491 6.01028 106.827 6.10257 107.204 6.10286C107.413 6.10301 107.608 6.07589 107.79 6.02148C107.974 5.9648 108.139 5.88197 108.285 5.77299C108.433 5.66401 108.557 5.53001 108.657 5.371C108.759 5.21198 108.83 5.03022 108.868 4.8257L110.143 4.83348C110.095 5.16526 109.992 5.47655 109.833 5.76734C109.676 6.05813 109.47 6.31479 109.215 6.53733C108.96 6.75759 108.662 6.93009 108.321 7.05484C107.98 7.17731 107.602 7.23838 107.186 7.23807C106.572 7.23761 106.025 7.09515 105.543 6.8107C105.062 6.52624 104.682 6.11573 104.405 5.57916C104.129 5.04259 103.99 4.3993 103.991 3.6493C103.992 2.89703 104.132 2.25395 104.412 1.72007C104.692 1.18392 105.073 0.773979 105.555 0.49025C106.037 0.206522 106.582 0.0648873 107.191 0.0653458C107.58 0.0656383 107.941 0.120456 108.275 0.229798C108.609 0.339141 108.907 0.499592 109.168 0.711153C109.429 0.92044 109.644 1.17742 109.812 1.48209C109.982 1.78449 110.093 2.13003 110.145 2.51871Z" fill="var(--fill-0, white)"/>
<path id="Vector_7" d="M95.7341 7.134L94.3841 7.13298L96.8473 0.153015L98.4086 0.154191L100.865 7.13786L99.5147 7.13684L97.6542 1.58544L97.5996 1.5854L95.7341 7.134ZM95.7804 4.39653L99.4623 4.3993L99.4615 5.41521L95.7797 5.41244L95.7804 4.39653Z" fill="var(--fill-0, white)"/>
<path id="Vector_8" d="M93.4731 0.150477L93.4679 7.13229L92.2031 7.13134L92.2084 0.149525L93.4731 0.150477Z" fill="var(--fill-0, white)"/>
<path id="Vector_9" d="M90.8302 0.148488L90.825 7.1303L89.7 7.12946L86.4138 2.3713L86.3558 2.37126L86.3523 7.12694L85.0875 7.12599L85.0927 0.144169L86.2246 0.145021L89.5073 4.90658L89.5687 4.90663L89.5723 0.147541L90.8302 0.148488Z" fill="var(--fill-0, white)"/>
<path id="Vector_10" d="M78.8437 7.12128L78.849 0.139465L81.4672 0.141436C82.0035 0.14184 82.4535 0.23536 82.817 0.421998C83.1827 0.608637 83.4587 0.870208 83.6448 1.20671C83.8332 1.54095 83.9272 1.93079 83.9269 2.37624C83.9265 2.82397 83.8308 3.21253 83.6396 3.54194C83.4507 3.86907 83.1721 4.12227 82.8038 4.30153C82.4355 4.47853 81.9832 4.56683 81.4468 4.56642L79.582 4.56502L79.5828 3.51502L81.2771 3.51629C81.5908 3.51653 81.8476 3.47354 82.0477 3.38733C82.2477 3.29884 82.3956 3.17055 82.4912 3.00244C82.589 2.83205 82.638 2.623 82.6382 2.37527C82.6384 2.12755 82.5897 1.91615 82.4921 1.74107C82.3945 1.56373 82.2457 1.42952 82.0458 1.33846C81.8459 1.24513 81.588 1.19835 81.2721 1.19811L80.113 1.19724L80.1085 7.12223L78.8437 7.12128ZM82.4529 3.96036L84.179 7.1253L82.7676 7.12424L81.0723 3.95932L82.4529 3.96036Z" fill="var(--fill-0, white)"/>
<path id="Vector_11" d="M73.0125 7.1169L73.0177 0.135078L77.5587 0.138497L77.5579 1.19872L74.2817 1.19626L74.2803 3.09171L77.3212 3.094L77.3204 4.15423L74.2795 4.15194L74.2781 6.05762L77.5815 6.06011L77.5807 7.12033L73.0125 7.1169Z" fill="var(--fill-0, white)"/>
<path id="Vector_12" d="M65.8687 7.11152L65.874 0.1297L67.1388 0.130652L67.1365 3.08633L70.3718 3.08877L70.374 0.133087L71.6422 0.134042L71.6369 7.11586L70.3687 7.1149L70.371 4.149L67.1357 4.14656L67.1335 7.11247L65.8687 7.11152Z" fill="var(--fill-0, white)"/>
<path id="Vector_13" d="M57.2437 7.10502L57.249 0.123207L59.8672 0.125178C60.4035 0.125582 60.8535 0.219102 61.217 0.405739C61.5827 0.592378 61.8587 0.85395 62.0448 1.19045C62.2332 1.52469 62.3272 1.91453 62.3269 2.35998C62.3265 2.80771 62.2308 3.19628 62.0396 3.52568C61.8507 3.85281 61.5721 4.10601 61.2038 4.28528C60.8355 4.46227 60.3832 4.55057 59.8468 4.55016L57.982 4.54876L57.9828 3.49876L59.6771 3.50004C59.9908 3.50027 60.2476 3.45728 60.4477 3.37107C60.6478 3.28258 60.7956 3.15429 60.8912 2.98618C60.989 2.8158 61.038 2.60674 61.0382 2.35901C61.0384 2.11129 60.9897 1.89989 60.8921 1.72481C60.7945 1.54747 60.6458 1.41326 60.4458 1.3222C60.2459 1.22887 59.988 1.18209 59.6721 1.18185L58.513 1.18098L58.5085 7.10598L57.2437 7.10502ZM60.8529 3.9441L62.579 7.10904L61.1676 7.10798L59.4723 3.94306L60.8529 3.9441Z" fill="var(--fill-0, white)"/>
<path id="Vector_14" d="M55.8794 0.122176L55.8741 7.10399L54.6094 7.10304L54.6146 0.121223L55.8794 0.122176Z" fill="var(--fill-0, white)"/>
<path id="Vector_15" d="M48.5591 7.09849L47.2091 7.09747L49.6723 0.117504L51.2337 0.11868L53.6898 7.10235L52.3398 7.10133L50.4792 1.54993L50.4246 1.54989L48.5591 7.09849ZM48.6055 4.36102L52.2873 4.36379L52.2865 5.3797L48.6047 5.37693L48.6055 4.36102Z" fill="var(--fill-0, white)"/>
<path id="Vector_16" d="M42.2625 7.09375L42.2677 0.111931L44.8859 0.113902C45.4223 0.114305 45.8722 0.214644 46.2357 0.414918C46.6015 0.615193 46.8774 0.890401 47.0635 1.24054C47.2519 1.58841 47.3459 1.98394 47.3456 2.42712C47.3452 2.87484 47.2506 3.2725 47.0617 3.62009C46.8728 3.96767 46.5942 4.24133 46.2259 4.44105C45.8575 4.6385 45.404 4.73702 44.8654 4.73661L43.1302 4.73531L43.131 3.69554L44.6957 3.69671C45.0094 3.69695 45.2662 3.6426 45.4663 3.53366C45.6664 3.42472 45.8142 3.27483 45.9098 3.08399C46.0077 2.89316 46.0567 2.67387 46.0569 2.42615C46.0571 2.17842 46.0084 1.9602 45.9108 1.77149C45.8155 1.58278 45.6668 1.43608 45.4646 1.33138C45.2646 1.22441 45.0067 1.17081 44.6908 1.17057L43.5317 1.1697L43.5273 7.0947L42.2625 7.09375Z" fill="var(--fill-0, white)"/>
<path id="Vector_17" d="M36.4312 7.08936L36.4365 0.10754L40.9774 0.110958L40.9766 1.17119L37.7005 1.16872L37.6991 3.06417L40.74 3.06646L40.7392 4.12669L37.6983 4.1244L37.6968 6.03008L41.0002 6.03257L40.9994 7.0928L36.4312 7.08936Z" fill="var(--fill-0, white)"/>
<path id="Vector_18" d="M30.1875 7.08466L30.1927 0.10284L32.8109 0.104811C33.3473 0.105215 33.7972 0.198735 34.1607 0.385373C34.5265 0.572012 34.8024 0.833583 34.9885 1.17009C35.1769 1.50432 35.2709 1.89416 35.2706 2.33962C35.2703 2.78735 35.1745 3.17591 34.9834 3.50531C34.7945 3.83244 34.5159 4.08564 34.1476 4.26491C33.7793 4.44191 33.3269 4.5302 32.7906 4.5298L30.9258 4.52839L30.9266 3.47839L32.6209 3.47967C32.9345 3.47991 33.1914 3.43692 33.3914 3.3507C33.5915 3.26222 33.7393 3.13392 33.8349 2.96581C33.9328 2.79543 33.9818 2.58638 33.982 2.33865C33.9822 2.09092 33.9335 1.87952 33.8359 1.70445C33.7383 1.5271 33.5895 1.3929 33.3896 1.30184C33.1896 1.20851 32.9317 1.16172 32.6158 1.16148L31.4567 1.16061L31.4523 7.08561L30.1875 7.08466ZM33.7967 3.92374L35.5227 7.08867L34.1114 7.08761L32.416 3.9227L33.7967 3.92374Z" fill="var(--fill-0, white)"/>
<path id="Vector_19" d="M25.2402 2.32866C25.1835 2.14452 25.1052 1.97969 25.0054 1.83416C24.9077 1.68636 24.7897 1.56014 24.6511 1.45549C24.5148 1.35084 24.3581 1.27231 24.1808 1.21991C24.0036 1.16523 23.8104 1.13781 23.6013 1.13765C23.2263 1.13737 22.8922 1.23144 22.5989 1.41985C22.3055 1.60827 22.0746 1.88537 21.9062 2.25115C21.74 2.61466 21.6567 3.05778 21.6563 3.58051C21.6559 4.10778 21.7385 4.55443 21.9042 4.92047C22.0698 5.2865 22.3003 5.56508 22.5956 5.75621C22.8909 5.94507 23.234 6.03965 23.6249 6.03994C23.9795 6.04021 24.2863 5.97226 24.5455 5.83609C24.807 5.69992 25.0083 5.50689 25.1494 5.257C25.2905 5.00483 25.3612 4.70943 25.3614 4.3708L25.6477 4.41533L23.7523 4.4139L23.753 3.42527L26.586 3.4274L26.5853 4.26603C26.5849 4.86376 26.4572 5.38071 26.2024 5.81688C25.9475 6.25305 25.5972 6.58915 25.1516 6.82518C24.706 7.05894 24.1945 7.1756 23.6172 7.17516C22.9741 7.17468 22.4094 7.02994 21.9233 6.74093C21.4394 6.44966 21.0613 6.03688 20.789 5.50258C20.5189 4.96601 20.3842 4.32955 20.3847 3.59318C20.3851 3.02955 20.4651 2.5262 20.6245 2.08314C20.7862 1.64008 21.0115 1.26411 21.3003 0.955237C21.5892 0.644091 21.928 0.407982 22.3168 0.246911C22.7055 0.0835672 23.1283 0.00206703 23.5851 0.0024109C23.9715 0.00270173 24.3317 0.0597912 24.6657 0.173679C24.9997 0.285294 25.2962 0.444608 25.5551 0.651622C25.8163 0.858636 26.0309 1.10425 26.1989 1.38847C26.3668 1.67269 26.4768 1.98641 26.5288 2.32963L25.2402 2.32866Z" fill="var(--fill-0, white)"/>
<path id="Vector_20" d="M19.1865 0.0945556L19.1812 7.07637L18.0562 7.07553L14.7701 2.31737L14.7121 2.31732L14.7085 7.07301L13.4437 7.07205L13.449 0.0902367L14.5808 0.0910886L17.8636 4.85265L17.925 4.8527L17.9285 0.0936086L19.1865 0.0945556Z" fill="var(--fill-0, white)"/>
<path id="Vector_21" d="M7.39347 7.0675L6.04347 7.06648L8.50668 0.0865174L10.068 0.0876927L12.5241 7.07136L11.1741 7.07035L9.31355 1.51894L9.25901 1.5189L7.39347 7.0675ZM7.43984 4.33003L11.1217 4.33281L11.1209 5.34871L7.43908 5.34594L7.43984 4.33003Z" fill="var(--fill-0, white)"/>
<path id="Vector_22" d="M0 7.06193L0.00525555 0.0801163L1.27003 0.0810683L1.26761 3.28902L1.35284 3.28909L4.07912 0.0831829L5.62344 0.0843453L2.92108 3.21527L5.64204 7.06618L4.12159 7.06504L2.04089 4.07029L1.26634 4.98334L1.26477 7.06288L0 7.06193Z" fill="var(--fill-0, white)"/>
</g>
</svg>
