<svg preserveAspectRatio="none" width="100%" height="100%" overflow="visible" style="display: block;" viewBox="0 0 32 32" fill="none" xmlns="http://www.w3.org/2000/svg">
<g id="Icon">
<path id="Vector" d="M26.6666 17.3325C26.6666 23.9992 22 27.3325 16.4533 29.2658C16.1629 29.3643 15.8474 29.3596 15.56 29.2525C9.99997 27.3325 5.3333 23.9992 5.3333 17.3325V7.99917C5.3333 7.64555 5.47378 7.30641 5.72383 7.05636C5.97387 6.80631 6.31301 6.66583 6.66663 6.66583C9.3333 6.66583 12.6666 5.06583 14.9866 3.03917C15.2691 2.79783 15.6284 2.66523 16 2.66523C16.3715 2.66523 16.7308 2.79783 17.0133 3.03917C19.3466 5.07917 22.6666 6.66583 25.3333 6.66583C25.6869 6.66583 26.0261 6.80631 26.2761 7.05636C26.5262 7.30641 26.6666 7.64555 26.6666 7.99917V17.3325Z" stroke="var(--stroke-0, white)" stroke-width="2.66667" stroke-linecap="round" stroke-linejoin="round"/>
<path id="Vector_2" d="M12 15.9999L14.6667 18.6665L20 13.3332" stroke="var(--stroke-0, white)" stroke-width="2.66667" stroke-linecap="round" stroke-linejoin="round"/>
</g>
</svg>
