<svg viewBox="0 0 20 20" fill="none" xmlns="http://www.w3.org/2000/svg">
  <!-- Van body (scaleY=1.7 to match Figma layout) -->
  <g transform="translate(0.84 4.41) scale(1 1.7)">
    <path d="M15 9.16667H16.6667C17.1667 9.16667 17.5 8.83333 17.5 8.33333V5.83333C17.5 5.08333 16.9167 4.41667 16.25 4.25C14.75 3.83333 12.5 3.33333 12.5 3.33333C12.5 3.33333 11.4167 2.16667 10.6667 1.41667C10.25 1.08333 9.75 0.833333 9.16667 0.833333H3.33333C2.83333 0.833333 2.41667 1.16667 2.16667 1.58333L1 4C0.88965 4.32185 0.833333 4.65975 0.833333 5V8.33333C0.833333 8.83333 1.16667 9.16667 1.66667 9.16667H3.33333" stroke="#212121" stroke-width="1.66667" stroke-linecap="round" stroke-linejoin="round" vector-effect="non-scaling-stroke"/>
  </g>
  <!-- Left wheel -->
  <g transform="translate(3.34 11.67)">
    <path d="M2.5 4.16667C3.42047 4.16667 4.16667 3.42047 4.16667 2.5C4.16667 1.57953 3.42047 0.833333 2.5 0.833333C1.57953 0.833333 0.833333 1.57953 0.833333 2.5C0.833333 3.42047 1.57953 4.16667 2.5 4.16667Z" stroke="#212121" stroke-width="1.66667" stroke-linecap="round" stroke-linejoin="round"/>
  </g>
  <!-- Right wheel -->
  <g transform="translate(11.67 11.67)">
    <path d="M2.5 4.16667C3.42047 4.16667 4.16667 3.42047 4.16667 2.5C4.16667 1.57953 3.42047 0.833333 2.5 0.833333C1.57953 0.833333 0.833333 1.57953 0.833333 2.5C0.833333 3.42047 1.57953 4.16667 2.5 4.16667Z" stroke="#212121" stroke-width="1.66667" stroke-linecap="round" stroke-linejoin="round"/>
  </g>
  <!-- Horizontal detail line -->
  <g transform="translate(6.67 13.34)">
    <path d="M0.833333 0.833333H5.83333" stroke="#212121" stroke-width="1.66667" stroke-linecap="round" stroke-linejoin="round"/>
  </g>
</svg>
