<svg preserveAspectRatio="none" width="100%" height="100%" overflow="visible" style="display: block;" viewBox="0 0 24 24" fill="none" xmlns="http://www.w3.org/2000/svg">
<g id="Icon">
<path id="Union" d="M17.9998 3C18.7954 3 19.5583 3.31637 20.1209 3.87891C20.6835 4.4415 20.9998 5.20437 20.9998 6V9.1748C21.4172 9.32266 21.8018 9.55981 22.1209 9.87891C22.6834 10.4415 22.9998 11.2044 22.9998 12V20C22.9998 20.5522 22.552 20.9999 21.9998 21C21.4475 21 20.9998 20.5523 20.9998 20V19H2.9998V20C2.9998 20.5522 2.552 20.9999 1.9998 21C1.44752 21 0.999805 20.5523 0.999805 20V12C0.999818 11.2044 1.31611 10.4415 1.87871 9.87891C2.19787 9.55979 2.58236 9.32263 2.9998 9.1748V6C2.99982 5.2044 3.31616 4.4415 3.87871 3.87891C4.44127 3.31634 5.20423 3.00005 5.9998 3H17.9998ZM3.9998 11C3.73465 11 3.4803 11.1055 3.29277 11.293C3.10525 11.4805 2.99982 11.7348 2.9998 12V17H20.9998V12C20.9998 11.7348 20.8943 11.4805 20.7068 11.293C20.5193 11.1055 20.2649 11.0001 19.9998 11H3.9998ZM5.9998 5C5.73466 5.00005 5.48026 5.10548 5.29277 5.29297C5.10529 5.48049 4.99982 5.73484 4.9998 6V9H10.9998V5H5.9998ZM12.9998 9H18.9998V6C18.9998 5.7348 18.8944 5.48049 18.7068 5.29297C18.5193 5.10551 18.265 5 17.9998 5H12.9998V9Z" fill="var(--fill-0, #0047AB)"/>
</g>
</svg>
