<svg preserveAspectRatio="none" width="100%" height="100%" overflow="visible" style="display: block;" viewBox="0 0 40 40" fill="none" xmlns="http://www.w3.org/2000/svg">
<g id="Icon">
<path id="Vector" d="M6.66652 26.6671V22.7004C6.66652 19.1671 4.94985 17.5004 4.99985 13.3337C5.04985 8.80041 7.48318 3.33374 12.4999 3.33374C15.6165 3.33374 16.6665 6.33374 16.6665 9.16707C16.6665 14.3504 13.3332 18.6004 13.3332 23.6337V26.6671C13.3332 27.5511 12.982 28.399 12.3569 29.0241C11.7318 29.6492 10.8839 30.0004 9.99985 30.0004C9.1158 30.0004 8.26795 29.6492 7.64283 29.0241C7.01771 28.399 6.66652 27.5511 6.66652 26.6671Z" fill="var(--fill-0, #FDFDFD)" stroke="var(--stroke-0, #FDFDFD)" stroke-width="2.91667" stroke-linecap="round" stroke-linejoin="round"/>
<path id="Vector_2" d="M33.3334 33.3333V29.3667C33.3334 25.8333 35.0501 24.1667 35.0001 20C34.9501 15.4667 32.5168 10 27.5001 10C24.3834 10 23.3334 13 23.3334 15.8333C23.3334 21.0167 26.6668 25.2667 26.6668 30.3V33.3333C26.6668 34.2174 27.018 35.0652 27.6431 35.6904C28.2682 36.3155 29.116 36.6667 30.0001 36.6667C30.8842 36.6667 31.732 36.3155 32.3571 35.6904C32.9822 35.0652 33.3334 34.2174 33.3334 33.3333Z" fill="var(--fill-0, #FDFDFD)" stroke="var(--stroke-0, #FDFDFD)" stroke-width="2.91667" stroke-linecap="round" stroke-linejoin="round"/>
<g id="Vector_3">
<path d="M26.6666 28.3337H33.3332Z" fill="var(--fill-0, #FDFDFD)"/>
<path d="M26.6666 28.3337H33.3332" stroke="var(--stroke-0, #FDFDFD)" stroke-width="2.91667" stroke-linecap="round" stroke-linejoin="round"/>
</g>
<g id="Vector_4">
<path d="M6.66656 21.6663H13.3332Z" fill="var(--fill-0, #FDFDFD)"/>
<path d="M6.66656 21.6663H13.3332" stroke="var(--stroke-0, #FDFDFD)" stroke-width="2.91667" stroke-linecap="round" stroke-linejoin="round"/>
</g>
</g>
</svg>
