<svg preserveAspectRatio="none" width="100%" height="100%" overflow="visible" style="display: block;" viewBox="0 0 19.5 19.5" fill="none" xmlns="http://www.w3.org/2000/svg">
<g id="Frame 427318445">
<path id="Vector" d="M9.75 0C7.82164 0 5.93657 0.571828 4.33319 1.64317C2.72982 2.71452 1.48013 4.23726 0.742179 6.01884C0.00422448 7.80042 -0.188858 9.76082 0.187348 11.6521C0.563554 13.5434 1.49215 15.2807 2.85571 16.6443C4.21928 18.0079 5.95656 18.9365 7.84787 19.3127C9.73919 19.6889 11.6996 19.4958 13.4812 18.7578C15.2627 18.0199 16.7855 16.7702 17.8568 15.1668C18.9282 13.5634 19.5 11.6784 19.5 9.75C19.4974 7.16495 18.4693 4.68654 16.6414 2.85863C14.8135 1.03073 12.3351 0.00264726 9.75 0ZM9.75 18C8.11831 18 6.52326 17.5161 5.16655 16.6096C3.80984 15.7031 2.75242 14.4146 2.128 12.9071C1.50358 11.3996 1.3402 9.74085 1.65853 8.1405C1.97685 6.54016 2.76259 5.07015 3.91637 3.91637C5.07016 2.76259 6.54017 1.97685 8.14051 1.65852C9.74085 1.34019 11.3997 1.50357 12.9071 2.12799C14.4146 2.75242 15.7031 3.80984 16.6096 5.16655C17.5162 6.52325 18 8.1183 18 9.75C17.9974 11.9372 17.1273 14.0341 15.5807 15.5807C14.0341 17.1273 11.9372 17.9974 9.75 18ZM13.75 7H12.5V5.75C12.4974 5.28668 12.3122 4.84309 11.9845 4.51546C11.6569 4.18784 11.2133 4.00263 10.75 4H8.75C8.28669 4.00263 7.84309 4.18784 7.51547 4.51546C7.18785 4.84309 7.00263 5.28668 7 5.75V7H5.75C5.28669 7.00263 4.84309 7.18784 4.51547 7.51546C4.18785 7.84309 4.00263 8.28668 4 8.75V10.75C4.00263 11.2133 4.18785 11.6569 4.51547 11.9845C4.84309 12.3122 5.28669 12.4974 5.75 12.5H7V13.75C7.00263 14.2133 7.18785 14.6569 7.51547 14.9845C7.84309 15.3122 8.28669 15.4974 8.75 15.5H10.75C11.2133 15.4974 11.6569 15.3122 11.9845 14.9845C12.3122 14.6569 12.4974 14.2133 12.5 13.75V12.5H13.75C14.2133 12.4974 14.6569 12.3122 14.9845 11.9845C15.3122 11.6569 15.4974 11.2133 15.5 10.75V8.75C15.4974 8.28668 15.3122 7.84309 14.9845 7.51546C14.6569 7.18784 14.2133 7.00263 13.75 7ZM14 10.75C14 10.8163 13.9737 10.8799 13.9268 10.9268C13.8799 10.9737 13.8163 11 13.75 11H11.75C11.5519 11.0026 11.3626 11.0824 11.2225 11.2225C11.0824 11.3626 11.0026 11.5519 11 11.75V13.75C11 13.8163 10.9737 13.8799 10.9268 13.9268C10.8799 13.9737 10.8163 14 10.75 14H8.75C8.6837 14 8.62011 13.9737 8.57323 13.9268C8.52634 13.8799 8.5 13.8163 8.5 13.75V11.75C8.49741 11.5519 8.41757 11.3626 8.27747 11.2225C8.13738 11.0824 7.94811 11.0026 7.75 11H5.75C5.6837 11 5.62011 10.9737 5.57323 10.9268C5.52634 10.8799 5.5 10.8163 5.5 10.75V8.75C5.5 8.6837 5.52634 8.62011 5.57323 8.57322C5.62011 8.52634 5.6837 8.5 5.75 8.5H7.75C7.94811 8.49741 8.13738 8.41756 8.27747 8.27747C8.41757 8.13737 8.49741 7.94811 8.5 7.75V5.75C8.5 5.6837 8.52634 5.62011 8.57323 5.57322C8.62011 5.52634 8.6837 5.5 8.75 5.5H10.75C10.8163 5.5 10.8799 5.52634 10.9268 5.57322C10.9737 5.62011 11 5.6837 11 5.75V7.75C11.0026 7.94811 11.0824 8.13737 11.2225 8.27747C11.3626 8.41756 11.5519 8.49741 11.75 8.5H13.75C13.8163 8.5 13.8799 8.52634 13.9268 8.57322C13.9737 8.62011 14 8.6837 14 8.75V10.75Z" fill="var(--fill-0, #0047AB)"/>
</g>
</svg>
