<svg preserveAspectRatio="none" width="100%" height="100%" overflow="visible" style="display: block;" viewBox="0 0 19.5 21.5" fill="none" xmlns="http://www.w3.org/2000/svg">
<g id="Frame 427318265">
<path id="Vector" d="M17.75 6H14.5V3.75C14.4974 3.28668 14.3122 2.84309 13.9845 2.51546C13.6569 2.18784 13.2133 2.00263 12.75 2H6.75C6.28668 2.00263 5.84309 2.18784 5.51546 2.51546C5.18784 2.84309 5.00263 3.28668 5 3.75V6H1.75C1.28668 6.00263 0.843085 6.18784 0.515464 6.51546C0.187842 6.84309 0.0026251 7.28668 0 7.75V19.75C0.0026251 20.2133 0.187842 20.6569 0.515464 20.9845C0.843085 21.3122 1.28668 21.4974 1.75 21.5H17.75C18.2133 21.4974 18.6569 21.3122 18.9845 20.9845C19.3122 20.6569 19.4974 20.2133 19.5 19.75V7.75C19.4974 7.28668 19.3122 6.84309 18.9845 6.51546C18.6569 6.18784 18.2133 6.00263 17.75 6ZM6.5 3.75C6.5 3.6837 6.52634 3.62011 6.57322 3.57322C6.62011 3.52634 6.6837 3.5 6.75 3.5H12.75C12.8163 3.5 12.8799 3.52634 12.9268 3.57322C12.9737 3.62011 13 3.6837 13 3.75V6H6.5V3.75ZM18 19.75C18 19.8163 17.9737 19.8799 17.9268 19.9268C17.8799 19.9737 17.8163 20 17.75 20H1.75C1.6837 20 1.62011 19.9737 1.57322 19.9268C1.52634 19.8799 1.5 19.8163 1.5 19.75V7.75C1.5 7.6837 1.52634 7.62011 1.57322 7.57322C1.62011 7.52634 1.6837 7.5 1.75 7.5H17.75C17.8163 7.5 17.8799 7.52634 17.9268 7.57322C17.9737 7.62011 18 7.6837 18 7.75V19.75ZM12.95 11.4H12.1V10.55C12.0974 10.1397 11.9332 9.747 11.6431 9.45688C11.353 9.16677 10.9603 9.00262 10.55 9H8.95C8.53972 9.00262 8.147 9.16677 7.85688 9.45688C7.56677 9.747 7.40262 10.1397 7.4 10.55V11.4H6.55C6.13972 11.4026 5.747 11.5668 5.45688 11.8569C5.16677 12.147 5.00262 12.5397 5 12.95V14.55C5.00262 14.9603 5.16677 15.353 5.45688 15.6431C5.747 15.9332 6.13972 16.0974 6.55 16.1H7.4V16.95C7.40262 17.3603 7.56677 17.753 7.85688 18.0431C8.147 18.3332 8.53972 18.4974 8.95 18.5H10.55C10.9603 18.4974 11.353 18.3332 11.6431 18.0431C11.9332 17.753 12.0974 17.3603 12.1 16.95V16.1H12.95C13.3603 16.0974 13.753 15.9332 14.0431 15.6431C14.3332 15.353 14.4974 14.9603 14.5 14.55V12.95C14.4974 12.5397 14.3332 12.147 14.0431 11.8569C13.753 11.5668 13.3603 11.4026 12.95 11.4ZM12.95 14.6H11.35C11.1519 14.6026 10.9626 14.6824 10.8225 14.8225C10.6824 14.9626 10.6026 15.1519 10.6 15.35V17L8.95 16.95V15.35C8.94741 15.1519 8.86756 14.9626 8.72747 14.8225C8.58737 14.6824 8.39811 14.6026 8.2 14.6H6.55L6.6 12.95H8.2C8.39811 12.9474 8.58737 12.8676 8.72747 12.7275C8.86756 12.5874 8.94741 12.3981 8.95 12.2V10.55L10.6 10.6V12.2C10.6026 12.3981 10.6824 12.5874 10.8225 12.7275C10.9626 12.8676 11.1519 12.9474 11.35 12.95H12.95H13L12.95 14.6Z" fill="var(--fill-0, #016630)"/>
</g>
</svg>
