<svg preserveAspectRatio="none" width="100%" height="100%" overflow="visible" style="display: block;" viewBox="0 0 24 24" fill="none" xmlns="http://www.w3.org/2000/svg">
<g id="Icon">
<path id="Vector" d="M2.99194 16.3412C3.13897 16.7121 3.17171 17.1185 3.08594 17.5082L2.02094 20.7982C1.98662 20.9651 1.99549 21.1379 2.04671 21.3004C2.09793 21.4628 2.1898 21.6095 2.3136 21.7265C2.43741 21.8435 2.58904 21.9269 2.75413 21.9689C2.91923 22.0108 3.0923 22.0099 3.25694 21.9662L6.66994 20.9682C7.03765 20.8953 7.41846 20.9271 7.76894 21.0602C9.90432 22.0574 12.3233 22.2684 14.5991 21.6559C16.8749 21.0434 18.8612 19.6469 20.2076 17.7126C21.5541 15.7783 22.1741 13.4306 21.9582 11.0838C21.7424 8.7369 20.7046 6.54167 19.028 4.8854C17.3514 3.22913 15.1436 2.21824 12.7943 2.0311C10.445 1.84396 8.10507 2.49259 6.18738 3.86254C4.26968 5.2325 2.89747 7.23575 2.31283 9.51884C1.72819 11.8019 1.9687 14.2182 2.99194 16.3412Z" stroke="var(--stroke-0, #086FED)" stroke-width="2" stroke-linecap="round" stroke-linejoin="round"/>
</g>
</svg>
