<svg preserveAspectRatio="none" width="100%" height="100%" overflow="visible" style="display: block;" viewBox="0 0 18.3334 15.8465" fill="none" xmlns="http://www.w3.org/2000/svg">
<path id="Vector" d="M0.833333 5.43013C0.83335 4.5028 1.11466 3.59728 1.64011 2.83318C2.16556 2.06908 2.91043 1.48234 3.77634 1.15046C4.64225 0.818578 5.58847 0.757165 6.49001 0.974331C7.39156 1.1915 8.20602 1.67703 8.82583 2.36679C8.86949 2.41347 8.92227 2.45069 8.9809 2.47613C9.03953 2.50157 9.10276 2.5147 9.16667 2.5147C9.23058 2.5147 9.29381 2.50157 9.35244 2.47613C9.41107 2.45069 9.46385 2.41347 9.5075 2.36679C10.1254 1.67254 10.94 1.18293 11.843 0.963129C12.746 0.743324 13.6946 0.80375 14.5624 1.13636C15.4302 1.46898 16.1762 2.05801 16.7009 2.82505C17.2257 3.59209 17.5044 4.50076 17.5 5.43013C17.5 7.33846 16.25 8.76346 15 10.0135L10.4233 14.441C10.2681 14.6193 10.0766 14.7626 9.86171 14.8612C9.6468 14.9599 9.41337 15.0117 9.17691 15.0132C8.94045 15.0147 8.70637 14.9658 8.49024 14.8699C8.2741 14.774 8.08086 14.6332 7.92333 14.4568L3.33333 10.0135C2.08333 8.76346 0.833333 7.3468 0.833333 5.43013Z" stroke="var(--stroke-0, #00A63E)" stroke-width="1.66667" stroke-linecap="round" stroke-linejoin="round"/>
</svg>
