<svg preserveAspectRatio="none" width="100%" height="100%" overflow="visible" style="display: block;" viewBox="0 0 28 28" fill="none" xmlns="http://www.w3.org/2000/svg">
<g id="Icon">
<path id="Vector" d="M5.83333 5.83333C5.83321 5.42277 5.94142 5.01945 6.14703 4.66409C6.35264 4.30873 6.64838 4.01391 7.00438 3.8094C7.36037 3.60489 7.76403 3.49793 8.17459 3.49932C8.58514 3.50072 8.98807 3.61041 9.34267 3.81733L23.3392 11.9817C23.6924 12.1866 23.9856 12.4807 24.1896 12.8345C24.3936 13.1883 24.5011 13.5894 24.5014 13.9978C24.5018 14.4062 24.395 14.8075 24.1916 15.1617C23.9883 15.5158 23.6955 15.8104 23.3427 16.016L9.34267 24.1827C8.98807 24.3896 8.58514 24.4993 8.17459 24.5007C7.76403 24.5021 7.36037 24.3951 7.00438 24.1906C6.64838 23.9861 6.35264 23.6913 6.14703 23.3359C5.94142 22.9805 5.83321 22.5772 5.83333 22.1667V5.83333Z" stroke="var(--stroke-0, white)" stroke-width="2.33333" stroke-linecap="round" stroke-linejoin="round"/>
</g>
</svg>
